<mxfile host="app.diagrams.net" modified="2024-04-14T18:09:57.043Z" agent="Mozilla/5.0 (Windows NT 10.0; Win64; x64) AppleWebKit/537.36 (KHTML, like Gecko) Chrome/121.0.0.0 Safari/537.36 OPR/107.0.0.0" etag="6TpEpfNYBhSx8hGw3X3z" version="24.2.5" type="github">
  <diagram name="Страница — 1" id="_3OwAnRn34-5d0Blf2xz">
    <mxGraphModel dx="8431" dy="2553" grid="1" gridSize="10" guides="1" tooltips="1" connect="1" arrows="1" fold="1" page="1" pageScale="1" pageWidth="827" pageHeight="1169" math="0" shadow="0">
      <root>
        <mxCell id="0" />
        <mxCell id="1" parent="0" />
        <mxCell id="wIzm2T1jJwrxE7YObgyB-15" value="Клиент" style="swimlane;" vertex="1" parent="1">
          <mxGeometry x="-1650" width="550" height="2220" as="geometry">
            <mxRectangle width="80" height="30" as="alternateBounds" />
          </mxGeometry>
        </mxCell>
        <mxCell id="wIzm2T1jJwrxE7YObgyB-66" value="" style="endArrow=none;dashed=1;html=1;dashPattern=1 3;strokeWidth=2;rounded=0;" edge="1" parent="wIzm2T1jJwrxE7YObgyB-15">
          <mxGeometry width="50" height="50" relative="1" as="geometry">
            <mxPoint y="640" as="sourcePoint" />
            <mxPoint x="540" y="640" as="targetPoint" />
          </mxGeometry>
        </mxCell>
        <mxCell id="wIzm2T1jJwrxE7YObgyB-23" value="" style="rhombus;whiteSpace=wrap;html=1;" vertex="1" parent="wIzm2T1jJwrxE7YObgyB-15">
          <mxGeometry x="235" y="90" width="30" height="40" as="geometry" />
        </mxCell>
        <mxCell id="wIzm2T1jJwrxE7YObgyB-26" value="Посмотреть меню" style="rounded=1;whiteSpace=wrap;html=1;" vertex="1" parent="wIzm2T1jJwrxE7YObgyB-15">
          <mxGeometry x="205" y="160" width="90" height="40" as="geometry" />
        </mxCell>
        <mxCell id="wIzm2T1jJwrxE7YObgyB-27" value="" style="endArrow=classic;html=1;rounded=0;entryX=0.5;entryY=0;entryDx=0;entryDy=0;" edge="1" parent="wIzm2T1jJwrxE7YObgyB-15" target="wIzm2T1jJwrxE7YObgyB-26">
          <mxGeometry width="50" height="50" relative="1" as="geometry">
            <mxPoint x="250" y="130" as="sourcePoint" />
            <mxPoint x="260" y="160" as="targetPoint" />
          </mxGeometry>
        </mxCell>
        <mxCell id="wIzm2T1jJwrxE7YObgyB-28" value="" style="rhombus;whiteSpace=wrap;html=1;" vertex="1" parent="wIzm2T1jJwrxE7YObgyB-15">
          <mxGeometry x="235" y="230" width="30" height="40" as="geometry" />
        </mxCell>
        <mxCell id="wIzm2T1jJwrxE7YObgyB-29" value="" style="endArrow=classic;html=1;rounded=0;entryX=0.5;entryY=0;entryDx=0;entryDy=0;exitX=0.5;exitY=1;exitDx=0;exitDy=0;" edge="1" parent="wIzm2T1jJwrxE7YObgyB-15" target="wIzm2T1jJwrxE7YObgyB-28">
          <mxGeometry width="50" height="50" relative="1" as="geometry">
            <mxPoint x="250" y="200" as="sourcePoint" />
            <mxPoint x="490" y="330" as="targetPoint" />
          </mxGeometry>
        </mxCell>
        <mxCell id="wIzm2T1jJwrxE7YObgyB-30" value="" style="endArrow=classic;html=1;rounded=0;entryX=0.5;entryY=0;entryDx=0;entryDy=0;exitX=0.5;exitY=1;exitDx=0;exitDy=0;" edge="1" parent="wIzm2T1jJwrxE7YObgyB-15" source="wIzm2T1jJwrxE7YObgyB-28">
          <mxGeometry width="50" height="50" relative="1" as="geometry">
            <mxPoint x="280" y="250" as="sourcePoint" />
            <mxPoint x="250" y="300" as="targetPoint" />
          </mxGeometry>
        </mxCell>
        <mxCell id="wIzm2T1jJwrxE7YObgyB-31" value="Посмотреть информацию о товаре" style="rounded=1;whiteSpace=wrap;html=1;" vertex="1" parent="wIzm2T1jJwrxE7YObgyB-15">
          <mxGeometry x="202.5" y="300" width="95" height="50" as="geometry" />
        </mxCell>
        <mxCell id="wIzm2T1jJwrxE7YObgyB-32" value="" style="rhombus;whiteSpace=wrap;html=1;" vertex="1" parent="wIzm2T1jJwrxE7YObgyB-15">
          <mxGeometry x="235" y="380" width="30" height="40" as="geometry" />
        </mxCell>
        <mxCell id="wIzm2T1jJwrxE7YObgyB-33" value="" style="endArrow=classic;html=1;rounded=0;entryX=0.5;entryY=0;entryDx=0;entryDy=0;exitX=0.5;exitY=1;exitDx=0;exitDy=0;" edge="1" parent="wIzm2T1jJwrxE7YObgyB-15" target="wIzm2T1jJwrxE7YObgyB-32">
          <mxGeometry width="50" height="50" relative="1" as="geometry">
            <mxPoint x="250" y="350" as="sourcePoint" />
            <mxPoint x="490" y="480" as="targetPoint" />
          </mxGeometry>
        </mxCell>
        <mxCell id="wIzm2T1jJwrxE7YObgyB-34" value="" style="endArrow=classic;html=1;rounded=0;exitX=0;exitY=0.5;exitDx=0;exitDy=0;" edge="1" parent="wIzm2T1jJwrxE7YObgyB-15" source="wIzm2T1jJwrxE7YObgyB-32">
          <mxGeometry width="50" height="50" relative="1" as="geometry">
            <mxPoint x="230" y="400" as="sourcePoint" />
            <mxPoint x="180" y="110" as="targetPoint" />
            <Array as="points">
              <mxPoint x="180" y="400" />
            </Array>
          </mxGeometry>
        </mxCell>
        <mxCell id="wIzm2T1jJwrxE7YObgyB-36" value="" style="endArrow=classic;html=1;rounded=0;entryX=0.5;entryY=0;entryDx=0;entryDy=0;exitX=0.5;exitY=1;exitDx=0;exitDy=0;" edge="1" parent="wIzm2T1jJwrxE7YObgyB-15">
          <mxGeometry width="50" height="50" relative="1" as="geometry">
            <mxPoint x="249.82" y="420" as="sourcePoint" />
            <mxPoint x="249.82" y="450" as="targetPoint" />
          </mxGeometry>
        </mxCell>
        <mxCell id="wIzm2T1jJwrxE7YObgyB-37" value="Добавить товар в заказ" style="rounded=1;whiteSpace=wrap;html=1;" vertex="1" parent="wIzm2T1jJwrxE7YObgyB-15">
          <mxGeometry x="205" y="450" width="95" height="50" as="geometry" />
        </mxCell>
        <mxCell id="wIzm2T1jJwrxE7YObgyB-42" value="" style="endArrow=classic;html=1;rounded=0;exitX=0.481;exitY=1.071;exitDx=0;exitDy=0;exitPerimeter=0;" edge="1" parent="wIzm2T1jJwrxE7YObgyB-15" source="wIzm2T1jJwrxE7YObgyB-37">
          <mxGeometry width="50" height="50" relative="1" as="geometry">
            <mxPoint x="250" y="530" as="sourcePoint" />
            <mxPoint x="370" y="110" as="targetPoint" />
            <Array as="points">
              <mxPoint x="250" y="530" />
              <mxPoint x="370" y="530" />
            </Array>
          </mxGeometry>
        </mxCell>
        <mxCell id="wIzm2T1jJwrxE7YObgyB-43" value="" style="endArrow=classic;html=1;rounded=0;entryX=1;entryY=0.5;entryDx=0;entryDy=0;" edge="1" parent="wIzm2T1jJwrxE7YObgyB-15" target="wIzm2T1jJwrxE7YObgyB-23">
          <mxGeometry width="50" height="50" relative="1" as="geometry">
            <mxPoint x="370" y="110" as="sourcePoint" />
            <mxPoint x="330" y="125" as="targetPoint" />
          </mxGeometry>
        </mxCell>
        <mxCell id="wIzm2T1jJwrxE7YObgyB-50" value="" style="rhombus;whiteSpace=wrap;html=1;" vertex="1" parent="wIzm2T1jJwrxE7YObgyB-15">
          <mxGeometry x="230" y="600" width="30" height="40" as="geometry" />
        </mxCell>
        <mxCell id="wIzm2T1jJwrxE7YObgyB-52" value="Посмотреть корзину" style="rounded=1;whiteSpace=wrap;html=1;" vertex="1" parent="wIzm2T1jJwrxE7YObgyB-15">
          <mxGeometry x="200" y="670" width="90" height="40" as="geometry" />
        </mxCell>
        <mxCell id="wIzm2T1jJwrxE7YObgyB-53" value="" style="endArrow=classic;html=1;rounded=0;entryX=0.5;entryY=0;entryDx=0;entryDy=0;" edge="1" parent="wIzm2T1jJwrxE7YObgyB-15" target="wIzm2T1jJwrxE7YObgyB-52">
          <mxGeometry width="50" height="50" relative="1" as="geometry">
            <mxPoint x="245" y="640" as="sourcePoint" />
            <mxPoint x="255" y="670" as="targetPoint" />
          </mxGeometry>
        </mxCell>
        <mxCell id="wIzm2T1jJwrxE7YObgyB-54" value="" style="rhombus;whiteSpace=wrap;html=1;" vertex="1" parent="wIzm2T1jJwrxE7YObgyB-15">
          <mxGeometry x="230" y="740" width="30" height="40" as="geometry" />
        </mxCell>
        <mxCell id="wIzm2T1jJwrxE7YObgyB-55" value="" style="endArrow=classic;html=1;rounded=0;entryX=0.5;entryY=0;entryDx=0;entryDy=0;" edge="1" parent="wIzm2T1jJwrxE7YObgyB-15">
          <mxGeometry width="50" height="50" relative="1" as="geometry">
            <mxPoint x="245" y="780" as="sourcePoint" />
            <mxPoint x="245" y="810" as="targetPoint" />
          </mxGeometry>
        </mxCell>
        <mxCell id="wIzm2T1jJwrxE7YObgyB-56" value="" style="endArrow=classic;html=1;rounded=0;entryX=0.5;entryY=0;entryDx=0;entryDy=0;" edge="1" parent="wIzm2T1jJwrxE7YObgyB-15">
          <mxGeometry width="50" height="50" relative="1" as="geometry">
            <mxPoint x="244.81" y="710" as="sourcePoint" />
            <mxPoint x="244.81" y="740" as="targetPoint" />
          </mxGeometry>
        </mxCell>
        <mxCell id="wIzm2T1jJwrxE7YObgyB-57" value="" style="endArrow=classic;html=1;rounded=0;entryX=0.5;entryY=0;entryDx=0;entryDy=0;" edge="1" parent="wIzm2T1jJwrxE7YObgyB-15">
          <mxGeometry width="50" height="50" relative="1" as="geometry">
            <mxPoint x="250" y="810" as="sourcePoint" />
            <mxPoint x="160" y="840" as="targetPoint" />
            <Array as="points">
              <mxPoint x="160" y="810" />
            </Array>
          </mxGeometry>
        </mxCell>
        <mxCell id="wIzm2T1jJwrxE7YObgyB-58" value="" style="endArrow=classic;html=1;rounded=0;entryX=0.5;entryY=0;entryDx=0;entryDy=0;" edge="1" parent="wIzm2T1jJwrxE7YObgyB-15">
          <mxGeometry width="50" height="50" relative="1" as="geometry">
            <mxPoint x="250" y="810" as="sourcePoint" />
            <mxPoint x="290" y="840" as="targetPoint" />
            <Array as="points">
              <mxPoint x="290" y="810" />
            </Array>
          </mxGeometry>
        </mxCell>
        <mxCell id="wIzm2T1jJwrxE7YObgyB-59" value="" style="endArrow=classic;html=1;rounded=0;" edge="1" parent="wIzm2T1jJwrxE7YObgyB-15">
          <mxGeometry width="50" height="50" relative="1" as="geometry">
            <mxPoint x="244.81" y="810" as="sourcePoint" />
            <mxPoint x="245" y="910" as="targetPoint" />
          </mxGeometry>
        </mxCell>
        <mxCell id="wIzm2T1jJwrxE7YObgyB-60" value="Удалить товар" style="rounded=1;whiteSpace=wrap;html=1;" vertex="1" parent="wIzm2T1jJwrxE7YObgyB-15">
          <mxGeometry x="260" y="840" width="90" height="40" as="geometry" />
        </mxCell>
        <mxCell id="wIzm2T1jJwrxE7YObgyB-61" value="Изменить количество" style="rounded=1;whiteSpace=wrap;html=1;" vertex="1" parent="wIzm2T1jJwrxE7YObgyB-15">
          <mxGeometry x="115" y="840" width="90" height="40" as="geometry" />
        </mxCell>
        <mxCell id="wIzm2T1jJwrxE7YObgyB-62" value="Оформить заказ" style="rounded=1;whiteSpace=wrap;html=1;" vertex="1" parent="wIzm2T1jJwrxE7YObgyB-15">
          <mxGeometry x="200" y="980" width="90" height="40" as="geometry" />
        </mxCell>
        <mxCell id="wIzm2T1jJwrxE7YObgyB-63" value="" style="rhombus;whiteSpace=wrap;html=1;" vertex="1" parent="wIzm2T1jJwrxE7YObgyB-15">
          <mxGeometry x="230" y="910" width="30" height="40" as="geometry" />
        </mxCell>
        <mxCell id="wIzm2T1jJwrxE7YObgyB-65" value="" style="endArrow=classic;html=1;rounded=0;entryX=0.5;entryY=0;entryDx=0;entryDy=0;" edge="1" parent="wIzm2T1jJwrxE7YObgyB-15">
          <mxGeometry width="50" height="50" relative="1" as="geometry">
            <mxPoint x="244.79" y="950" as="sourcePoint" />
            <mxPoint x="244.79" y="980" as="targetPoint" />
          </mxGeometry>
        </mxCell>
        <mxCell id="wIzm2T1jJwrxE7YObgyB-68" value="" style="endArrow=classic;html=1;rounded=0;entryX=0;entryY=0.5;entryDx=0;entryDy=0;" edge="1" parent="wIzm2T1jJwrxE7YObgyB-15" target="wIzm2T1jJwrxE7YObgyB-50">
          <mxGeometry width="50" height="50" relative="1" as="geometry">
            <mxPoint x="115" y="860" as="sourcePoint" />
            <mxPoint x="95" y="570" as="targetPoint" />
            <Array as="points">
              <mxPoint x="100" y="860" />
              <mxPoint x="100" y="620" />
            </Array>
          </mxGeometry>
        </mxCell>
        <mxCell id="wIzm2T1jJwrxE7YObgyB-46" value="" style="endArrow=classic;html=1;rounded=0;exitX=1;exitY=0.5;exitDx=0;exitDy=0;entryX=0.5;entryY=0;entryDx=0;entryDy=0;" edge="1" parent="wIzm2T1jJwrxE7YObgyB-15" source="wIzm2T1jJwrxE7YObgyB-28" target="wIzm2T1jJwrxE7YObgyB-50">
          <mxGeometry width="50" height="50" relative="1" as="geometry">
            <mxPoint x="245" y="410" as="sourcePoint" />
            <mxPoint x="390" y="560" as="targetPoint" />
            <Array as="points">
              <mxPoint x="390" y="250" />
              <mxPoint x="390" y="570" />
              <mxPoint x="245" y="570" />
            </Array>
          </mxGeometry>
        </mxCell>
        <mxCell id="wIzm2T1jJwrxE7YObgyB-70" value="" style="endArrow=classic;html=1;rounded=0;entryX=1;entryY=0.5;entryDx=0;entryDy=0;exitX=1;exitY=0.75;exitDx=0;exitDy=0;" edge="1" parent="wIzm2T1jJwrxE7YObgyB-15" target="wIzm2T1jJwrxE7YObgyB-50">
          <mxGeometry width="50" height="50" relative="1" as="geometry">
            <mxPoint x="350" y="860" as="sourcePoint" />
            <mxPoint x="510" y="620" as="targetPoint" />
            <Array as="points">
              <mxPoint x="380" y="860" />
              <mxPoint x="380" y="620" />
            </Array>
          </mxGeometry>
        </mxCell>
        <mxCell id="wIzm2T1jJwrxE7YObgyB-71" value="" style="endArrow=classic;html=1;rounded=0;" edge="1" parent="wIzm2T1jJwrxE7YObgyB-15" target="wIzm2T1jJwrxE7YObgyB-72">
          <mxGeometry width="50" height="50" relative="1" as="geometry">
            <mxPoint x="290" y="1000" as="sourcePoint" />
            <mxPoint x="309.11" y="1070" as="targetPoint" />
          </mxGeometry>
        </mxCell>
        <mxCell id="wIzm2T1jJwrxE7YObgyB-72" value="" style="rhombus;whiteSpace=wrap;html=1;" vertex="1" parent="wIzm2T1jJwrxE7YObgyB-15">
          <mxGeometry x="328.92" y="980" width="30" height="40" as="geometry" />
        </mxCell>
        <mxCell id="wIzm2T1jJwrxE7YObgyB-35" value="" style="endArrow=classic;html=1;rounded=0;entryX=0;entryY=0.5;entryDx=0;entryDy=0;" edge="1" parent="wIzm2T1jJwrxE7YObgyB-15" target="wIzm2T1jJwrxE7YObgyB-23">
          <mxGeometry width="50" height="50" relative="1" as="geometry">
            <mxPoint x="60" y="110" as="sourcePoint" />
            <mxPoint x="733" y="250" as="targetPoint" />
          </mxGeometry>
        </mxCell>
        <mxCell id="wIzm2T1jJwrxE7YObgyB-75" value="" style="endArrow=classic;html=1;rounded=0;" edge="1" parent="wIzm2T1jJwrxE7YObgyB-15">
          <mxGeometry width="50" height="50" relative="1" as="geometry">
            <mxPoint x="358.91999999999996" y="999.72" as="sourcePoint" />
            <mxPoint x="390" y="1000" as="targetPoint" />
          </mxGeometry>
        </mxCell>
        <mxCell id="wIzm2T1jJwrxE7YObgyB-81" value="Получить чек" style="rounded=0;whiteSpace=wrap;html=1;" vertex="1" parent="wIzm2T1jJwrxE7YObgyB-15">
          <mxGeometry x="200" y="1060" width="80" height="30" as="geometry" />
        </mxCell>
        <mxCell id="wIzm2T1jJwrxE7YObgyB-85" value="" style="rhombus;whiteSpace=wrap;html=1;" vertex="1" parent="wIzm2T1jJwrxE7YObgyB-15">
          <mxGeometry x="225" y="1120" width="30" height="40" as="geometry" />
        </mxCell>
        <mxCell id="wIzm2T1jJwrxE7YObgyB-86" value="" style="endArrow=classic;html=1;rounded=0;entryX=0.5;entryY=0;entryDx=0;entryDy=0;" edge="1" parent="wIzm2T1jJwrxE7YObgyB-15">
          <mxGeometry width="50" height="50" relative="1" as="geometry">
            <mxPoint x="239.80999999999995" y="1090" as="sourcePoint" />
            <mxPoint x="239.80999999999995" y="1120" as="targetPoint" />
          </mxGeometry>
        </mxCell>
        <mxCell id="wIzm2T1jJwrxE7YObgyB-87" value="" style="endArrow=classic;html=1;rounded=0;entryX=0;entryY=0.5;entryDx=0;entryDy=0;exitX=0;exitY=0.5;exitDx=0;exitDy=0;" edge="1" parent="wIzm2T1jJwrxE7YObgyB-15" source="wIzm2T1jJwrxE7YObgyB-85">
          <mxGeometry width="50" height="50" relative="1" as="geometry">
            <mxPoint x="115" y="1169" as="sourcePoint" />
            <mxPoint x="230" y="929" as="targetPoint" />
            <Array as="points">
              <mxPoint x="100" y="1080" />
              <mxPoint x="100" y="929" />
            </Array>
          </mxGeometry>
        </mxCell>
        <mxCell id="wIzm2T1jJwrxE7YObgyB-88" value="Данные клиента" style="rounded=0;whiteSpace=wrap;html=1;" vertex="1" parent="wIzm2T1jJwrxE7YObgyB-15">
          <mxGeometry x="430" y="950" width="57" height="35" as="geometry" />
        </mxCell>
        <mxCell id="wIzm2T1jJwrxE7YObgyB-90" value="" style="html=1;points=[[0,0,0,0,5],[0,1,0,0,-5],[1,0,0,0,5],[1,1,0,0,-5]];perimeter=orthogonalPerimeter;outlineConnect=0;targetShapes=umlLifeline;portConstraint=eastwest;newEdgeStyle={&quot;curved&quot;:0,&quot;rounded&quot;:0};fillColor=#f5f5f5;gradientColor=#b3b3b3;strokeColor=#666666;" vertex="1" parent="wIzm2T1jJwrxE7YObgyB-15">
          <mxGeometry x="390" y="960" width="10" height="60" as="geometry" />
        </mxCell>
        <mxCell id="wIzm2T1jJwrxE7YObgyB-91" value="" style="endArrow=classic;html=1;rounded=0;" edge="1" parent="wIzm2T1jJwrxE7YObgyB-15">
          <mxGeometry width="50" height="50" relative="1" as="geometry">
            <mxPoint x="400" y="967.36" as="sourcePoint" />
            <mxPoint x="431.08000000000004" y="967.64" as="targetPoint" />
          </mxGeometry>
        </mxCell>
        <mxCell id="wIzm2T1jJwrxE7YObgyB-92" value="" style="endArrow=classic;html=1;rounded=0;entryX=0;entryY=0.5;entryDx=0;entryDy=0;" edge="1" parent="wIzm2T1jJwrxE7YObgyB-15" target="wIzm2T1jJwrxE7YObgyB-73">
          <mxGeometry width="50" height="50" relative="1" as="geometry">
            <mxPoint x="400" y="999.86" as="sourcePoint" />
            <mxPoint x="431.08000000000004" y="1000.14" as="targetPoint" />
          </mxGeometry>
        </mxCell>
        <mxCell id="wIzm2T1jJwrxE7YObgyB-76" value="" style="endArrow=classic;html=1;rounded=0;exitX=0.5;exitY=0;exitDx=0;exitDy=0;" edge="1" parent="wIzm2T1jJwrxE7YObgyB-15" source="wIzm2T1jJwrxE7YObgyB-72">
          <mxGeometry width="50" height="50" relative="1" as="geometry">
            <mxPoint x="310.0000000000001" y="980" as="sourcePoint" />
            <mxPoint x="376.08000000000004" y="620" as="targetPoint" />
            <Array as="points">
              <mxPoint x="456.08000000000004" y="880" />
              <mxPoint x="456.08000000000004" y="620" />
            </Array>
          </mxGeometry>
        </mxCell>
        <mxCell id="wIzm2T1jJwrxE7YObgyB-96" value="" style="html=1;points=[[0,0,0,0,5],[0,1,0,0,-5],[1,0,0,0,5],[1,1,0,0,-5]];perimeter=orthogonalPerimeter;outlineConnect=0;targetShapes=umlLifeline;portConstraint=eastwest;newEdgeStyle={&quot;curved&quot;:0,&quot;rounded&quot;:0};fillColor=#f5f5f5;gradientColor=#b3b3b3;strokeColor=#666666;" vertex="1" parent="wIzm2T1jJwrxE7YObgyB-15">
          <mxGeometry x="205" y="1200" width="75" height="16.5" as="geometry" />
        </mxCell>
        <mxCell id="wIzm2T1jJwrxE7YObgyB-97" value="" style="endArrow=classic;html=1;rounded=0;" edge="1" parent="wIzm2T1jJwrxE7YObgyB-15" target="wIzm2T1jJwrxE7YObgyB-96">
          <mxGeometry width="50" height="50" relative="1" as="geometry">
            <mxPoint x="239.79999999999995" y="1160" as="sourcePoint" />
            <mxPoint x="239.79999999999995" y="1190" as="targetPoint" />
          </mxGeometry>
        </mxCell>
        <mxCell id="wIzm2T1jJwrxE7YObgyB-98" value="" style="endArrow=classic;html=1;rounded=0;entryX=-0.012;entryY=0.542;entryDx=0;entryDy=0;entryPerimeter=0;" edge="1" parent="wIzm2T1jJwrxE7YObgyB-15" target="wIzm2T1jJwrxE7YObgyB-101">
          <mxGeometry width="50" height="50" relative="1" as="geometry">
            <mxPoint x="265" y="1216.5" as="sourcePoint" />
            <mxPoint x="835.24" y="1257" as="targetPoint" />
            <Array as="points">
              <mxPoint x="265.24" y="1257" />
            </Array>
          </mxGeometry>
        </mxCell>
        <mxCell id="wIzm2T1jJwrxE7YObgyB-99" value="" style="endArrow=classic;html=1;rounded=0;" edge="1" parent="wIzm2T1jJwrxE7YObgyB-15">
          <mxGeometry width="50" height="50" relative="1" as="geometry">
            <mxPoint x="225" y="1216.5" as="sourcePoint" />
            <mxPoint x="225" y="1320" as="targetPoint" />
          </mxGeometry>
        </mxCell>
        <mxCell id="wIzm2T1jJwrxE7YObgyB-142" value="" style="html=1;points=[[0,0,0,0,5],[0,1,0,0,-5],[1,0,0,0,5],[1,1,0,0,-5]];perimeter=orthogonalPerimeter;outlineConnect=0;targetShapes=umlLifeline;portConstraint=eastwest;newEdgeStyle={&quot;curved&quot;:0,&quot;rounded&quot;:0};fillColor=#f5f5f5;gradientColor=#b3b3b3;strokeColor=#666666;" vertex="1" parent="wIzm2T1jJwrxE7YObgyB-15">
          <mxGeometry x="240" y="1970" width="75" height="16.5" as="geometry" />
        </mxCell>
        <mxCell id="wIzm2T1jJwrxE7YObgyB-143" value="Получить заказ" style="rounded=1;whiteSpace=wrap;html=1;" vertex="1" parent="wIzm2T1jJwrxE7YObgyB-15">
          <mxGeometry x="230" y="2020" width="90" height="40" as="geometry" />
        </mxCell>
        <mxCell id="wIzm2T1jJwrxE7YObgyB-144" value="" style="rhombus;whiteSpace=wrap;html=1;" vertex="1" parent="wIzm2T1jJwrxE7YObgyB-15">
          <mxGeometry x="260" y="2090" width="30" height="40" as="geometry" />
        </mxCell>
        <mxCell id="wIzm2T1jJwrxE7YObgyB-145" value="" style="endArrow=classic;html=1;rounded=0;entryX=0.5;entryY=0;entryDx=0;entryDy=0;" edge="1" parent="wIzm2T1jJwrxE7YObgyB-15">
          <mxGeometry width="50" height="50" relative="1" as="geometry">
            <mxPoint x="274.80999999999995" y="2060" as="sourcePoint" />
            <mxPoint x="274.80999999999995" y="2090" as="targetPoint" />
          </mxGeometry>
        </mxCell>
        <mxCell id="wIzm2T1jJwrxE7YObgyB-146" value="" style="endArrow=classic;html=1;rounded=0;entryX=0.5;entryY=0;entryDx=0;entryDy=0;" edge="1" parent="wIzm2T1jJwrxE7YObgyB-15" source="wIzm2T1jJwrxE7YObgyB-142">
          <mxGeometry width="50" height="50" relative="1" as="geometry">
            <mxPoint x="274.76" y="1990" as="sourcePoint" />
            <mxPoint x="274.76" y="2020" as="targetPoint" />
          </mxGeometry>
        </mxCell>
        <mxCell id="wIzm2T1jJwrxE7YObgyB-147" value="" style="endArrow=classic;html=1;rounded=0;exitX=0;exitY=0.25;exitDx=0;exitDy=0;" edge="1" parent="wIzm2T1jJwrxE7YObgyB-15" source="wIzm2T1jJwrxE7YObgyB-140">
          <mxGeometry width="50" height="50" relative="1" as="geometry">
            <mxPoint x="491.22000000000025" y="1931.7000000000003" as="sourcePoint" />
            <mxPoint x="297.5" y="1970" as="targetPoint" />
            <Array as="points">
              <mxPoint x="297.5" y="1930" />
            </Array>
          </mxGeometry>
        </mxCell>
        <mxCell id="wIzm2T1jJwrxE7YObgyB-148" value="" style="rhombus;whiteSpace=wrap;html=1;" vertex="1" parent="wIzm2T1jJwrxE7YObgyB-15">
          <mxGeometry x="210" y="1320" width="30" height="40" as="geometry" />
        </mxCell>
        <mxCell id="wIzm2T1jJwrxE7YObgyB-149" value="Посмотреть статус заказ" style="rounded=1;whiteSpace=wrap;html=1;" vertex="1" parent="wIzm2T1jJwrxE7YObgyB-15">
          <mxGeometry x="180" y="1430" width="90" height="40" as="geometry" />
        </mxCell>
        <mxCell id="wIzm2T1jJwrxE7YObgyB-150" value="" style="endArrow=classic;html=1;rounded=0;exitX=0.5;exitY=1;exitDx=0;exitDy=0;entryX=0.5;entryY=0;entryDx=0;entryDy=0;" edge="1" parent="wIzm2T1jJwrxE7YObgyB-15" source="wIzm2T1jJwrxE7YObgyB-148" target="wIzm2T1jJwrxE7YObgyB-149">
          <mxGeometry width="50" height="50" relative="1" as="geometry">
            <mxPoint x="235" y="1226.5" as="sourcePoint" />
            <mxPoint x="235" y="1330" as="targetPoint" />
          </mxGeometry>
        </mxCell>
        <mxCell id="wIzm2T1jJwrxE7YObgyB-151" value="" style="endArrow=classic;html=1;rounded=0;" edge="1" parent="wIzm2T1jJwrxE7YObgyB-15">
          <mxGeometry width="50" height="50" relative="1" as="geometry">
            <mxPoint x="225" y="1470" as="sourcePoint" />
            <mxPoint x="225" y="1530" as="targetPoint" />
          </mxGeometry>
        </mxCell>
        <mxCell id="wIzm2T1jJwrxE7YObgyB-152" value="" style="rhombus;whiteSpace=wrap;html=1;" vertex="1" parent="wIzm2T1jJwrxE7YObgyB-15">
          <mxGeometry x="210" y="1530" width="30" height="40" as="geometry" />
        </mxCell>
        <mxCell id="wIzm2T1jJwrxE7YObgyB-153" value="" style="endArrow=classic;html=1;rounded=0;exitX=0.5;exitY=1;exitDx=0;exitDy=0;" edge="1" parent="wIzm2T1jJwrxE7YObgyB-15" source="wIzm2T1jJwrxE7YObgyB-152" target="wIzm2T1jJwrxE7YObgyB-142">
          <mxGeometry width="50" height="50" relative="1" as="geometry">
            <mxPoint x="235" y="1436.5" as="sourcePoint" />
            <mxPoint x="225" y="1640" as="targetPoint" />
            <Array as="points">
              <mxPoint x="225" y="1660" />
              <mxPoint x="270" y="1660" />
            </Array>
          </mxGeometry>
        </mxCell>
        <mxCell id="wIzm2T1jJwrxE7YObgyB-154" value="Обновить статус заказа" style="rounded=1;whiteSpace=wrap;html=1;" vertex="1" parent="wIzm2T1jJwrxE7YObgyB-15">
          <mxGeometry x="320" y="1533.75" width="90" height="40" as="geometry" />
        </mxCell>
        <mxCell id="wIzm2T1jJwrxE7YObgyB-159" value="" style="endArrow=classic;html=1;rounded=0;exitX=1;exitY=0.5;exitDx=0;exitDy=0;entryX=0;entryY=0.5;entryDx=0;entryDy=0;" edge="1" parent="wIzm2T1jJwrxE7YObgyB-15" source="wIzm2T1jJwrxE7YObgyB-152" target="wIzm2T1jJwrxE7YObgyB-154">
          <mxGeometry width="50" height="50" relative="1" as="geometry">
            <mxPoint x="289.42999999999995" y="1500" as="sourcePoint" />
            <mxPoint x="289.42999999999995" y="1560" as="targetPoint" />
          </mxGeometry>
        </mxCell>
        <mxCell id="wIzm2T1jJwrxE7YObgyB-160" value="" style="endArrow=classic;html=1;rounded=0;exitX=0.5;exitY=0;exitDx=0;exitDy=0;entryX=1;entryY=0.5;entryDx=0;entryDy=0;" edge="1" parent="wIzm2T1jJwrxE7YObgyB-15" source="wIzm2T1jJwrxE7YObgyB-154" target="wIzm2T1jJwrxE7YObgyB-148">
          <mxGeometry width="50" height="50" relative="1" as="geometry">
            <mxPoint x="250" y="1560" as="sourcePoint" />
            <mxPoint x="340" y="1360" as="targetPoint" />
            <Array as="points">
              <mxPoint x="360" y="1340" />
            </Array>
          </mxGeometry>
        </mxCell>
        <mxCell id="wIzm2T1jJwrxE7YObgyB-161" value="" style="endArrow=classic;html=1;rounded=0;exitX=0;exitY=0.5;exitDx=0;exitDy=0;entryX=0;entryY=0.5;entryDx=0;entryDy=0;" edge="1" parent="wIzm2T1jJwrxE7YObgyB-15" source="wIzm2T1jJwrxE7YObgyB-152" target="wIzm2T1jJwrxE7YObgyB-148">
          <mxGeometry width="50" height="50" relative="1" as="geometry">
            <mxPoint x="140" y="1480" as="sourcePoint" />
            <mxPoint x="140" y="1540" as="targetPoint" />
            <Array as="points">
              <mxPoint x="110" y="1550" />
              <mxPoint x="110" y="1340" />
            </Array>
          </mxGeometry>
        </mxCell>
        <mxCell id="wIzm2T1jJwrxE7YObgyB-165" value="" style="endArrow=classic;html=1;rounded=0;entryX=0.5;entryY=0;entryDx=0;entryDy=0;" edge="1" parent="wIzm2T1jJwrxE7YObgyB-15">
          <mxGeometry width="50" height="50" relative="1" as="geometry">
            <mxPoint x="274.66999999999996" y="2130" as="sourcePoint" />
            <mxPoint x="274.66999999999996" y="2160" as="targetPoint" />
          </mxGeometry>
        </mxCell>
        <mxCell id="wIzm2T1jJwrxE7YObgyB-166" value="" style="endArrow=classic;html=1;rounded=0;entryX=0.5;entryY=0;entryDx=0;entryDy=0;" edge="1" parent="wIzm2T1jJwrxE7YObgyB-15">
          <mxGeometry width="50" height="50" relative="1" as="geometry">
            <mxPoint x="249.66999999999996" y="60" as="sourcePoint" />
            <mxPoint x="249.66999999999996" y="90" as="targetPoint" />
          </mxGeometry>
        </mxCell>
        <mxCell id="wIzm2T1jJwrxE7YObgyB-167" value="" style="ellipse;whiteSpace=wrap;html=1;aspect=fixed;fillColor=#f5f5f5;gradientColor=#b3b3b3;strokeColor=#666666;" vertex="1" parent="wIzm2T1jJwrxE7YObgyB-15">
          <mxGeometry x="240" y="40" width="20" height="20" as="geometry" />
        </mxCell>
        <mxCell id="wIzm2T1jJwrxE7YObgyB-168" value="" style="ellipse;whiteSpace=wrap;html=1;aspect=fixed;" vertex="1" parent="wIzm2T1jJwrxE7YObgyB-15">
          <mxGeometry x="260" y="2160" width="29.5" height="29.5" as="geometry" />
        </mxCell>
        <mxCell id="wIzm2T1jJwrxE7YObgyB-170" value="" style="ellipse;whiteSpace=wrap;html=1;aspect=fixed;fillColor=#f5f5f5;gradientColor=#b3b3b3;strokeColor=#666666;" vertex="1" parent="wIzm2T1jJwrxE7YObgyB-15">
          <mxGeometry x="266.63" y="2166.37" width="16.75" height="16.75" as="geometry" />
        </mxCell>
        <mxCell id="wIzm2T1jJwrxE7YObgyB-171" value="" style="endArrow=classic;html=1;rounded=0;exitX=0;exitY=0.5;exitDx=0;exitDy=0;" edge="1" parent="wIzm2T1jJwrxE7YObgyB-15" source="wIzm2T1jJwrxE7YObgyB-144">
          <mxGeometry width="50" height="50" relative="1" as="geometry">
            <mxPoint x="180" y="2130" as="sourcePoint" />
            <mxPoint x="60" y="110" as="targetPoint" />
            <Array as="points">
              <mxPoint x="40" y="2110" />
            </Array>
          </mxGeometry>
        </mxCell>
        <mxCell id="wIzm2T1jJwrxE7YObgyB-172" value="&lt;font style=&quot;font-size: 8px;&quot;&gt;Клиент решил не заказывать товар&lt;/font&gt;" style="text;html=1;align=center;verticalAlign=middle;whiteSpace=wrap;rounded=0;" vertex="1" parent="wIzm2T1jJwrxE7YObgyB-15">
          <mxGeometry x="130" y="360" width="45" height="30" as="geometry" />
        </mxCell>
        <mxCell id="wIzm2T1jJwrxE7YObgyB-173" value="&lt;font style=&quot;font-size: 8px;&quot;&gt;Клиент решил заказать товар&lt;/font&gt;" style="text;html=1;align=center;verticalAlign=middle;whiteSpace=wrap;rounded=0;" vertex="1" parent="wIzm2T1jJwrxE7YObgyB-15">
          <mxGeometry x="266.63" y="400" width="45" height="30" as="geometry" />
        </mxCell>
        <mxCell id="wIzm2T1jJwrxE7YObgyB-174" value="&lt;font style=&quot;font-size: 8px;&quot;&gt;Клиент решил посмотреть информацию о товаре&lt;/font&gt;" style="text;html=1;align=center;verticalAlign=middle;whiteSpace=wrap;rounded=0;" vertex="1" parent="wIzm2T1jJwrxE7YObgyB-15">
          <mxGeometry x="305" y="270" width="45" height="30" as="geometry" />
        </mxCell>
        <mxCell id="wIzm2T1jJwrxE7YObgyB-175" value="&lt;font style=&quot;font-size: 8px;&quot;&gt;Клиент решил посмотреть корзину&lt;/font&gt;" style="text;html=1;align=center;verticalAlign=middle;whiteSpace=wrap;rounded=0;" vertex="1" parent="wIzm2T1jJwrxE7YObgyB-15">
          <mxGeometry x="410" y="520" width="45" height="30" as="geometry" />
        </mxCell>
        <mxCell id="wIzm2T1jJwrxE7YObgyB-176" value="&lt;font style=&quot;font-size: 8px;&quot;&gt;Клиент решил добавить товар&lt;/font&gt;" style="text;html=1;align=center;verticalAlign=middle;whiteSpace=wrap;rounded=0;" vertex="1" parent="wIzm2T1jJwrxE7YObgyB-15">
          <mxGeometry x="138" y="710" width="45" height="30" as="geometry" />
        </mxCell>
        <mxCell id="wIzm2T1jJwrxE7YObgyB-177" value="&lt;font style=&quot;font-size: 8px;&quot;&gt;Клиент решил изменить количество&lt;/font&gt;" style="text;html=1;align=center;verticalAlign=middle;whiteSpace=wrap;rounded=0;" vertex="1" parent="wIzm2T1jJwrxE7YObgyB-15">
          <mxGeometry x="130" y="780" width="95" height="30" as="geometry" />
        </mxCell>
        <mxCell id="wIzm2T1jJwrxE7YObgyB-178" value="&lt;font style=&quot;font-size: 8px;&quot;&gt;Клиент решил удалить товар из корзины&lt;/font&gt;" style="text;html=1;align=center;verticalAlign=middle;whiteSpace=wrap;rounded=0;" vertex="1" parent="wIzm2T1jJwrxE7YObgyB-15">
          <mxGeometry x="266.63" y="780" width="95" height="30" as="geometry" />
        </mxCell>
        <mxCell id="wIzm2T1jJwrxE7YObgyB-179" value="&lt;font style=&quot;font-size: 8px;&quot;&gt;Клиент решил оформить заказ&lt;/font&gt;" style="text;html=1;align=center;verticalAlign=middle;whiteSpace=wrap;rounded=0;" vertex="1" parent="wIzm2T1jJwrxE7YObgyB-15">
          <mxGeometry x="255" y="890" width="95" height="30" as="geometry" />
        </mxCell>
        <mxCell id="wIzm2T1jJwrxE7YObgyB-180" value="&lt;font style=&quot;font-size: 8px;&quot;&gt;Клиент решил не продолжать оформление заказа&lt;/font&gt;" style="text;html=1;align=center;verticalAlign=middle;whiteSpace=wrap;rounded=0;" vertex="1" parent="wIzm2T1jJwrxE7YObgyB-15">
          <mxGeometry x="464" y="840" width="65" height="30" as="geometry" />
        </mxCell>
        <mxCell id="wIzm2T1jJwrxE7YObgyB-181" value="&lt;span style=&quot;font-size: 8px;&quot;&gt;Оплата прошла&lt;/span&gt;" style="text;html=1;align=center;verticalAlign=middle;whiteSpace=wrap;rounded=0;" vertex="1" parent="wIzm2T1jJwrxE7YObgyB-15">
          <mxGeometry x="260" y="1160" width="95" height="30" as="geometry" />
        </mxCell>
        <mxCell id="wIzm2T1jJwrxE7YObgyB-182" value="&lt;span style=&quot;font-size: 8px;&quot;&gt;Оплата не прошла&lt;/span&gt;" style="text;html=1;align=center;verticalAlign=middle;whiteSpace=wrap;rounded=0;" vertex="1" parent="wIzm2T1jJwrxE7YObgyB-15">
          <mxGeometry x="123.75" y="1120" width="57.5" height="30" as="geometry" />
        </mxCell>
        <mxCell id="wIzm2T1jJwrxE7YObgyB-184" value="&lt;span style=&quot;font-size: 8px;&quot;&gt;Заказ не доставлен&lt;/span&gt;" style="text;html=1;align=center;verticalAlign=middle;whiteSpace=wrap;rounded=0;" vertex="1" parent="wIzm2T1jJwrxE7YObgyB-15">
          <mxGeometry x="107.5" y="1503.75" width="95" height="30" as="geometry" />
        </mxCell>
        <mxCell id="wIzm2T1jJwrxE7YObgyB-185" value="&lt;span style=&quot;font-size: 8px;&quot;&gt;Статус заказа изменен&lt;/span&gt;" style="text;html=1;align=center;verticalAlign=middle;whiteSpace=wrap;rounded=0;" vertex="1" parent="wIzm2T1jJwrxE7YObgyB-15">
          <mxGeometry x="230" y="1570" width="95" height="30" as="geometry" />
        </mxCell>
        <mxCell id="wIzm2T1jJwrxE7YObgyB-186" value="&lt;span style=&quot;font-size: 8px;&quot;&gt;Заказ доставлен&lt;/span&gt;" style="text;html=1;align=center;verticalAlign=middle;whiteSpace=wrap;rounded=0;" vertex="1" parent="wIzm2T1jJwrxE7YObgyB-15">
          <mxGeometry x="270" y="1780" width="95" height="30" as="geometry" />
        </mxCell>
        <mxCell id="wIzm2T1jJwrxE7YObgyB-187" value="&lt;span style=&quot;font-size: 8px;&quot;&gt;Клиент решил сделать новый заказ&lt;/span&gt;" style="text;html=1;align=center;verticalAlign=middle;whiteSpace=wrap;rounded=0;" vertex="1" parent="wIzm2T1jJwrxE7YObgyB-15">
          <mxGeometry x="80" y="2060" width="77" height="30" as="geometry" />
        </mxCell>
        <mxCell id="wIzm2T1jJwrxE7YObgyB-16" value="Система" style="swimlane;" vertex="1" parent="1">
          <mxGeometry x="-1100" width="350" height="2220" as="geometry" />
        </mxCell>
        <mxCell id="wIzm2T1jJwrxE7YObgyB-78" value="Произвести оплату" style="rounded=1;whiteSpace=wrap;html=1;" vertex="1" parent="wIzm2T1jJwrxE7YObgyB-16">
          <mxGeometry x="150" y="982.5" width="80" height="35" as="geometry" />
        </mxCell>
        <mxCell id="wIzm2T1jJwrxE7YObgyB-79" value="Чек" style="rounded=0;whiteSpace=wrap;html=1;" vertex="1" parent="wIzm2T1jJwrxE7YObgyB-16">
          <mxGeometry x="-37" y="1060" width="80" height="30" as="geometry" />
        </mxCell>
        <mxCell id="wIzm2T1jJwrxE7YObgyB-82" value="" style="endArrow=classic;html=1;rounded=0;" edge="1" parent="wIzm2T1jJwrxE7YObgyB-16">
          <mxGeometry width="50" height="50" relative="1" as="geometry">
            <mxPoint x="43" y="999.7900000000001" as="sourcePoint" />
            <mxPoint x="90" y="1000" as="targetPoint" />
          </mxGeometry>
        </mxCell>
        <mxCell id="wIzm2T1jJwrxE7YObgyB-83" value="" style="endArrow=classic;html=1;rounded=0;entryX=1;entryY=0.5;entryDx=0;entryDy=0;" edge="1" parent="wIzm2T1jJwrxE7YObgyB-16" target="wIzm2T1jJwrxE7YObgyB-79">
          <mxGeometry width="50" height="50" relative="1" as="geometry">
            <mxPoint x="190" y="1020" as="sourcePoint" />
            <mxPoint x="244.07999999999998" y="1050.28" as="targetPoint" />
            <Array as="points">
              <mxPoint x="190" y="1075" />
            </Array>
          </mxGeometry>
        </mxCell>
        <mxCell id="wIzm2T1jJwrxE7YObgyB-73" value="Стоимость заказа" style="rounded=0;whiteSpace=wrap;html=1;" vertex="1" parent="wIzm2T1jJwrxE7YObgyB-16">
          <mxGeometry x="-24" y="985" width="67" height="30" as="geometry" />
        </mxCell>
        <mxCell id="wIzm2T1jJwrxE7YObgyB-93" value="" style="html=1;points=[[0,0,0,0,5],[0,1,0,0,-5],[1,0,0,0,5],[1,1,0,0,-5]];perimeter=orthogonalPerimeter;outlineConnect=0;targetShapes=umlLifeline;portConstraint=eastwest;newEdgeStyle={&quot;curved&quot;:0,&quot;rounded&quot;:0};fillColor=#f5f5f5;gradientColor=#b3b3b3;strokeColor=#666666;" vertex="1" parent="wIzm2T1jJwrxE7YObgyB-16">
          <mxGeometry x="90" y="960" width="10" height="57.5" as="geometry" />
        </mxCell>
        <mxCell id="wIzm2T1jJwrxE7YObgyB-95" value="" style="endArrow=classic;html=1;rounded=0;entryX=0;entryY=0.5;entryDx=0;entryDy=0;" edge="1" parent="wIzm2T1jJwrxE7YObgyB-16" target="wIzm2T1jJwrxE7YObgyB-78">
          <mxGeometry width="50" height="50" relative="1" as="geometry">
            <mxPoint x="100" y="999.8800000000001" as="sourcePoint" />
            <mxPoint x="147" y="1000.09" as="targetPoint" />
          </mxGeometry>
        </mxCell>
        <mxCell id="wIzm2T1jJwrxE7YObgyB-112" value="" style="html=1;points=[[0,0,0,0,5],[0,1,0,0,-5],[1,0,0,0,5],[1,1,0,0,-5]];perimeter=orthogonalPerimeter;outlineConnect=0;targetShapes=umlLifeline;portConstraint=eastwest;newEdgeStyle={&quot;curved&quot;:0,&quot;rounded&quot;:0};fillColor=#f5f5f5;gradientColor=#b3b3b3;strokeColor=#666666;" vertex="1" parent="wIzm2T1jJwrxE7YObgyB-16">
          <mxGeometry x="150" y="1530" width="10" height="57.5" as="geometry" />
        </mxCell>
        <mxCell id="wIzm2T1jJwrxE7YObgyB-113" value="Статус заказа" style="rounded=0;whiteSpace=wrap;html=1;" vertex="1" parent="wIzm2T1jJwrxE7YObgyB-16">
          <mxGeometry x="-23" y="1543.75" width="80" height="30" as="geometry" />
        </mxCell>
        <mxCell id="wIzm2T1jJwrxE7YObgyB-115" value="" style="endArrow=classic;html=1;rounded=0;entryX=1;entryY=0.5;entryDx=0;entryDy=0;" edge="1" parent="wIzm2T1jJwrxE7YObgyB-16" source="wIzm2T1jJwrxE7YObgyB-112" target="wIzm2T1jJwrxE7YObgyB-113">
          <mxGeometry width="50" height="50" relative="1" as="geometry">
            <mxPoint x="520" y="1506.5" as="sourcePoint" />
            <mxPoint x="520" y="1580" as="targetPoint" />
          </mxGeometry>
        </mxCell>
        <mxCell id="wIzm2T1jJwrxE7YObgyB-124" value="" style="endArrow=classic;html=1;rounded=0;edgeStyle=orthogonalEdgeStyle;exitX=1;exitY=0.5;exitDx=0;exitDy=0;" edge="1" parent="wIzm2T1jJwrxE7YObgyB-16" source="wIzm2T1jJwrxE7YObgyB-122">
          <mxGeometry width="50" height="50" relative="1" as="geometry">
            <mxPoint x="900" y="1533.23" as="sourcePoint" />
            <mxPoint x="160" y="1543.68" as="targetPoint" />
            <Array as="points">
              <mxPoint x="940" y="1600" />
              <mxPoint x="970" y="1600" />
              <mxPoint x="970" y="1495" />
              <mxPoint x="250" y="1495" />
              <mxPoint x="250" y="1544" />
            </Array>
          </mxGeometry>
        </mxCell>
        <mxCell id="wIzm2T1jJwrxE7YObgyB-140" value="Заказ" style="rounded=0;whiteSpace=wrap;html=1;" vertex="1" parent="wIzm2T1jJwrxE7YObgyB-16">
          <mxGeometry x="-37" y="1920" width="80" height="30" as="geometry" />
        </mxCell>
        <mxCell id="wIzm2T1jJwrxE7YObgyB-158" value="" style="endArrow=classic;html=1;rounded=0;exitX=0;exitY=0.5;exitDx=0;exitDy=0;" edge="1" parent="wIzm2T1jJwrxE7YObgyB-16" source="wIzm2T1jJwrxE7YObgyB-102">
          <mxGeometry width="50" height="50" relative="1" as="geometry">
            <mxPoint x="466.03999999999996" y="1421.16" as="sourcePoint" />
            <mxPoint x="160" y="1560" as="targetPoint" />
            <Array as="points">
              <mxPoint x="270" y="1390" />
              <mxPoint x="270" y="1560" />
            </Array>
          </mxGeometry>
        </mxCell>
        <mxCell id="wIzm2T1jJwrxE7YObgyB-217" value="Сохранение данных о товаре&amp;nbsp; в системе" style="rounded=1;whiteSpace=wrap;html=1;" vertex="1" parent="wIzm2T1jJwrxE7YObgyB-16">
          <mxGeometry x="120" y="110" width="120" height="60" as="geometry" />
        </mxCell>
        <mxCell id="wIzm2T1jJwrxE7YObgyB-218" value="" style="endArrow=classic;html=1;rounded=0;exitX=0.5;exitY=1;exitDx=0;exitDy=0;" edge="1" parent="wIzm2T1jJwrxE7YObgyB-16" source="wIzm2T1jJwrxE7YObgyB-217">
          <mxGeometry width="50" height="50" relative="1" as="geometry">
            <mxPoint x="165" y="260" as="sourcePoint" />
            <mxPoint x="1010" y="210" as="targetPoint" />
            <Array as="points">
              <mxPoint x="180" y="210" />
            </Array>
          </mxGeometry>
        </mxCell>
        <mxCell id="wIzm2T1jJwrxE7YObgyB-220" value="" style="endArrow=classic;html=1;rounded=0;" edge="1" parent="wIzm2T1jJwrxE7YObgyB-16" target="wIzm2T1jJwrxE7YObgyB-112">
          <mxGeometry width="50" height="50" relative="1" as="geometry">
            <mxPoint x="1300" y="710" as="sourcePoint" />
            <mxPoint x="1170" y="1169" as="targetPoint" />
            <Array as="points">
              <mxPoint x="1300" y="1180" />
              <mxPoint x="220" y="1180" />
              <mxPoint x="220" y="1550" />
            </Array>
          </mxGeometry>
        </mxCell>
        <mxCell id="wIzm2T1jJwrxE7YObgyB-221" value="Удаление товара из системы" style="rounded=1;whiteSpace=wrap;html=1;" vertex="1" parent="wIzm2T1jJwrxE7YObgyB-16">
          <mxGeometry x="120" y="270" width="120" height="60" as="geometry" />
        </mxCell>
        <mxCell id="wIzm2T1jJwrxE7YObgyB-244" value="Удаление сотрудника" style="rounded=1;whiteSpace=wrap;html=1;" vertex="1" parent="wIzm2T1jJwrxE7YObgyB-16">
          <mxGeometry x="115" y="630" width="120" height="60" as="geometry" />
        </mxCell>
        <mxCell id="wIzm2T1jJwrxE7YObgyB-243" value="Сохранение данных о сотруднике" style="rounded=1;whiteSpace=wrap;html=1;" vertex="1" parent="wIzm2T1jJwrxE7YObgyB-16">
          <mxGeometry x="115" y="480" width="120" height="60" as="geometry" />
        </mxCell>
        <mxCell id="wIzm2T1jJwrxE7YObgyB-280" value="Изменить скидку" style="rounded=1;whiteSpace=wrap;html=1;" vertex="1" parent="wIzm2T1jJwrxE7YObgyB-16">
          <mxGeometry x="127.5" y="800" width="95" height="40" as="geometry" />
        </mxCell>
        <mxCell id="wIzm2T1jJwrxE7YObgyB-299" value="Изменить стоимость товара" style="rounded=1;whiteSpace=wrap;html=1;" vertex="1" parent="wIzm2T1jJwrxE7YObgyB-16">
          <mxGeometry x="115" y="880" width="112.5" height="40" as="geometry" />
        </mxCell>
        <mxCell id="wIzm2T1jJwrxE7YObgyB-17" value="Оператор" style="swimlane;startSize=23;" vertex="1" parent="1">
          <mxGeometry x="-750" width="320" height="2220" as="geometry" />
        </mxCell>
        <mxCell id="wIzm2T1jJwrxE7YObgyB-101" value="Информация о заказе" style="rounded=0;whiteSpace=wrap;html=1;" vertex="1" parent="wIzm2T1jJwrxE7YObgyB-17">
          <mxGeometry x="-30" y="1240" width="80" height="30" as="geometry" />
        </mxCell>
        <mxCell id="wIzm2T1jJwrxE7YObgyB-102" value="Изменить статус заказа" style="rounded=1;whiteSpace=wrap;html=1;" vertex="1" parent="wIzm2T1jJwrxE7YObgyB-17">
          <mxGeometry x="120" y="1370" width="90" height="40" as="geometry" />
        </mxCell>
        <mxCell id="wIzm2T1jJwrxE7YObgyB-103" value="" style="endArrow=classic;html=1;rounded=0;entryX=0.367;entryY=0.034;entryDx=0;entryDy=0;entryPerimeter=0;" edge="1" parent="wIzm2T1jJwrxE7YObgyB-17" target="wIzm2T1jJwrxE7YObgyB-104">
          <mxGeometry width="50" height="50" relative="1" as="geometry">
            <mxPoint x="50" y="1250" as="sourcePoint" />
            <mxPoint x="160" y="1320" as="targetPoint" />
            <Array as="points">
              <mxPoint x="156" y="1250.34" />
            </Array>
          </mxGeometry>
        </mxCell>
        <mxCell id="wIzm2T1jJwrxE7YObgyB-104" value="Отправить заказ в компанию" style="rounded=1;whiteSpace=wrap;html=1;" vertex="1" parent="wIzm2T1jJwrxE7YObgyB-17">
          <mxGeometry x="120" y="1270" width="95" height="50" as="geometry" />
        </mxCell>
        <mxCell id="wIzm2T1jJwrxE7YObgyB-106" value="" style="html=1;points=[[0,0,0,0,5],[0,1,0,0,-5],[1,0,0,0,5],[1,1,0,0,-5]];perimeter=orthogonalPerimeter;outlineConnect=0;targetShapes=umlLifeline;portConstraint=eastwest;newEdgeStyle={&quot;curved&quot;:0,&quot;rounded&quot;:0};fillColor=#f5f5f5;gradientColor=#b3b3b3;strokeColor=#666666;" vertex="1" parent="wIzm2T1jJwrxE7YObgyB-17">
          <mxGeometry x="130" y="1470" width="75" height="16.5" as="geometry" />
        </mxCell>
        <mxCell id="wIzm2T1jJwrxE7YObgyB-107" value="" style="endArrow=classic;html=1;rounded=0;exitX=0.5;exitY=1;exitDx=0;exitDy=0;" edge="1" parent="wIzm2T1jJwrxE7YObgyB-17" source="wIzm2T1jJwrxE7YObgyB-102">
          <mxGeometry width="50" height="50" relative="1" as="geometry">
            <mxPoint x="164.79999999999995" y="1440" as="sourcePoint" />
            <mxPoint x="165" y="1470" as="targetPoint" />
          </mxGeometry>
        </mxCell>
        <mxCell id="wIzm2T1jJwrxE7YObgyB-108" value="" style="endArrow=classic;html=1;rounded=0;" edge="1" parent="wIzm2T1jJwrxE7YObgyB-17">
          <mxGeometry width="50" height="50" relative="1" as="geometry">
            <mxPoint x="190" y="1486.5" as="sourcePoint" />
            <mxPoint x="280" y="1527" as="targetPoint" />
            <Array as="points">
              <mxPoint x="190.24" y="1527" />
            </Array>
          </mxGeometry>
        </mxCell>
        <mxCell id="wIzm2T1jJwrxE7YObgyB-109" value="" style="endArrow=classic;html=1;rounded=0;" edge="1" parent="wIzm2T1jJwrxE7YObgyB-17">
          <mxGeometry width="50" height="50" relative="1" as="geometry">
            <mxPoint x="150" y="1486.5" as="sourcePoint" />
            <mxPoint x="150" y="1560" as="targetPoint" />
          </mxGeometry>
        </mxCell>
        <mxCell id="wIzm2T1jJwrxE7YObgyB-110" value="Изменить статус заказа" style="rounded=1;whiteSpace=wrap;html=1;" vertex="1" parent="wIzm2T1jJwrxE7YObgyB-17">
          <mxGeometry x="110" y="1560" width="90" height="40" as="geometry" />
        </mxCell>
        <mxCell id="wIzm2T1jJwrxE7YObgyB-157" value="" style="endArrow=classic;html=1;rounded=0;exitX=0.5;exitY=1;exitDx=0;exitDy=0;" edge="1" parent="wIzm2T1jJwrxE7YObgyB-17" source="wIzm2T1jJwrxE7YObgyB-104" target="wIzm2T1jJwrxE7YObgyB-102">
          <mxGeometry width="50" height="50" relative="1" as="geometry">
            <mxPoint x="174.79999999999995" y="1450" as="sourcePoint" />
            <mxPoint x="175" y="1480" as="targetPoint" />
          </mxGeometry>
        </mxCell>
        <mxCell id="wIzm2T1jJwrxE7YObgyB-226" value="" style="endArrow=classic;html=1;rounded=0;exitX=0.5;exitY=1;exitDx=0;exitDy=0;" edge="1" parent="wIzm2T1jJwrxE7YObgyB-17">
          <mxGeometry width="50" height="50" relative="1" as="geometry">
            <mxPoint x="-170" y="330" as="sourcePoint" />
            <mxPoint x="660" y="370" as="targetPoint" />
            <Array as="points">
              <mxPoint x="-170" y="370" />
            </Array>
          </mxGeometry>
        </mxCell>
        <mxCell id="wIzm2T1jJwrxE7YObgyB-250" value="" style="endArrow=classic;html=1;rounded=0;exitX=0.5;exitY=1;exitDx=0;exitDy=0;" edge="1" parent="wIzm2T1jJwrxE7YObgyB-17">
          <mxGeometry width="50" height="50" relative="1" as="geometry">
            <mxPoint x="-180" y="544.5" as="sourcePoint" />
            <mxPoint x="660" y="400" as="targetPoint" />
            <Array as="points">
              <mxPoint x="-180" y="570" />
              <mxPoint x="230" y="570" />
              <mxPoint x="230" y="400" />
            </Array>
          </mxGeometry>
        </mxCell>
        <mxCell id="wIzm2T1jJwrxE7YObgyB-251" value="" style="endArrow=classic;html=1;rounded=0;exitX=0.5;exitY=1;exitDx=0;exitDy=0;" edge="1" parent="wIzm2T1jJwrxE7YObgyB-17">
          <mxGeometry width="50" height="50" relative="1" as="geometry">
            <mxPoint x="-180" y="694.5" as="sourcePoint" />
            <mxPoint x="230" y="560" as="targetPoint" />
            <Array as="points">
              <mxPoint x="-180" y="720" />
              <mxPoint x="230" y="720" />
              <mxPoint x="230" y="710" />
            </Array>
          </mxGeometry>
        </mxCell>
        <mxCell id="wIzm2T1jJwrxE7YObgyB-18" value="Курьер" style="swimlane;" vertex="1" parent="1">
          <mxGeometry x="-430" width="320" height="2220" as="geometry" />
        </mxCell>
        <mxCell id="wIzm2T1jJwrxE7YObgyB-116" value="Информация о заказе" style="rounded=0;whiteSpace=wrap;html=1;" vertex="1" parent="wIzm2T1jJwrxE7YObgyB-18">
          <mxGeometry x="-40" y="1513.75" width="80" height="30" as="geometry" />
        </mxCell>
        <mxCell id="wIzm2T1jJwrxE7YObgyB-117" value="" style="endArrow=classic;html=1;rounded=0;" edge="1" parent="wIzm2T1jJwrxE7YObgyB-18" source="wIzm2T1jJwrxE7YObgyB-106">
          <mxGeometry width="50" height="50" relative="1" as="geometry">
            <mxPoint x="-150" y="1490" as="sourcePoint" />
            <mxPoint x="-40" y="1570.5" as="targetPoint" />
            <Array as="points">
              <mxPoint x="-150" y="1550" />
              <mxPoint x="-80" y="1550" />
            </Array>
          </mxGeometry>
        </mxCell>
        <mxCell id="wIzm2T1jJwrxE7YObgyB-118" value="Заказ" style="rounded=0;whiteSpace=wrap;html=1;" vertex="1" parent="wIzm2T1jJwrxE7YObgyB-18">
          <mxGeometry x="-40" y="1557.25" width="80" height="30" as="geometry" />
        </mxCell>
        <mxCell id="wIzm2T1jJwrxE7YObgyB-119" value="" style="html=1;points=[[0,0,0,0,5],[0,1,0,0,-5],[1,0,0,0,5],[1,1,0,0,-5]];perimeter=orthogonalPerimeter;outlineConnect=0;targetShapes=umlLifeline;portConstraint=eastwest;newEdgeStyle={&quot;curved&quot;:0,&quot;rounded&quot;:0};fillColor=#f5f5f5;gradientColor=#b3b3b3;strokeColor=#666666;" vertex="1" parent="wIzm2T1jJwrxE7YObgyB-18">
          <mxGeometry x="80" y="1520" width="10" height="57.5" as="geometry" />
        </mxCell>
        <mxCell id="wIzm2T1jJwrxE7YObgyB-120" value="" style="endArrow=classic;html=1;rounded=0;exitX=1.004;exitY=0.431;exitDx=0;exitDy=0;exitPerimeter=0;" edge="1" parent="wIzm2T1jJwrxE7YObgyB-18" source="wIzm2T1jJwrxE7YObgyB-116" target="wIzm2T1jJwrxE7YObgyB-119">
          <mxGeometry width="50" height="50" relative="1" as="geometry">
            <mxPoint x="-145.20000000000005" y="1450" as="sourcePoint" />
            <mxPoint x="-145" y="1480" as="targetPoint" />
          </mxGeometry>
        </mxCell>
        <mxCell id="wIzm2T1jJwrxE7YObgyB-121" value="" style="endArrow=classic;html=1;rounded=0;exitX=1.004;exitY=0.431;exitDx=0;exitDy=0;exitPerimeter=0;" edge="1" parent="wIzm2T1jJwrxE7YObgyB-18">
          <mxGeometry width="50" height="50" relative="1" as="geometry">
            <mxPoint x="40" y="1572.08" as="sourcePoint" />
            <mxPoint x="80" y="1572.08" as="targetPoint" />
          </mxGeometry>
        </mxCell>
        <mxCell id="wIzm2T1jJwrxE7YObgyB-122" value="Изменить статус заказа" style="rounded=1;whiteSpace=wrap;html=1;" vertex="1" parent="wIzm2T1jJwrxE7YObgyB-18">
          <mxGeometry x="180" y="1577.5" width="90" height="40" as="geometry" />
        </mxCell>
        <mxCell id="wIzm2T1jJwrxE7YObgyB-123" value="" style="endArrow=classic;html=1;rounded=0;entryX=0;entryY=0.5;entryDx=0;entryDy=0;" edge="1" parent="wIzm2T1jJwrxE7YObgyB-18" source="wIzm2T1jJwrxE7YObgyB-119" target="wIzm2T1jJwrxE7YObgyB-127">
          <mxGeometry width="50" height="50" relative="1" as="geometry">
            <mxPoint x="100" y="1548.4099999999999" as="sourcePoint" />
            <mxPoint x="140" y="1548.4099999999999" as="targetPoint" />
          </mxGeometry>
        </mxCell>
        <mxCell id="wIzm2T1jJwrxE7YObgyB-125" value="Доставка заказа" style="rounded=1;whiteSpace=wrap;html=1;" vertex="1" parent="wIzm2T1jJwrxE7YObgyB-18">
          <mxGeometry x="180" y="1650" width="90" height="40" as="geometry" />
        </mxCell>
        <mxCell id="wIzm2T1jJwrxE7YObgyB-126" value="" style="endArrow=classic;html=1;rounded=0;exitX=0.5;exitY=1;exitDx=0;exitDy=0;" edge="1" parent="wIzm2T1jJwrxE7YObgyB-18" source="wIzm2T1jJwrxE7YObgyB-122">
          <mxGeometry width="50" height="50" relative="1" as="geometry">
            <mxPoint x="160" y="1587.25" as="sourcePoint" />
            <mxPoint x="225" y="1650" as="targetPoint" />
          </mxGeometry>
        </mxCell>
        <mxCell id="wIzm2T1jJwrxE7YObgyB-127" value="Взять заказ" style="rounded=1;whiteSpace=wrap;html=1;" vertex="1" parent="wIzm2T1jJwrxE7YObgyB-18">
          <mxGeometry x="180" y="1508.75" width="90" height="40" as="geometry" />
        </mxCell>
        <mxCell id="wIzm2T1jJwrxE7YObgyB-128" value="" style="endArrow=classic;html=1;rounded=0;" edge="1" parent="wIzm2T1jJwrxE7YObgyB-18">
          <mxGeometry width="50" height="50" relative="1" as="geometry">
            <mxPoint x="224.70999999999998" y="1548.75" as="sourcePoint" />
            <mxPoint x="224.91000000000003" y="1578.75" as="targetPoint" />
          </mxGeometry>
        </mxCell>
        <mxCell id="wIzm2T1jJwrxE7YObgyB-130" value="Изменить статус заказа" style="rounded=1;whiteSpace=wrap;html=1;" vertex="1" parent="wIzm2T1jJwrxE7YObgyB-18">
          <mxGeometry x="180" y="1720" width="90" height="40" as="geometry" />
        </mxCell>
        <mxCell id="wIzm2T1jJwrxE7YObgyB-131" value="" style="endArrow=classic;html=1;rounded=0;exitX=0;exitY=0.5;exitDx=0;exitDy=0;" edge="1" parent="wIzm2T1jJwrxE7YObgyB-18" target="wIzm2T1jJwrxE7YObgyB-112">
          <mxGeometry width="50" height="50" relative="1" as="geometry">
            <mxPoint x="180" y="1733.58" as="sourcePoint" />
            <mxPoint x="-120" y="1733.58" as="targetPoint" />
            <Array as="points">
              <mxPoint x="-240" y="1734" />
              <mxPoint x="-240" y="1570" />
              <mxPoint x="-460" y="1570" />
            </Array>
          </mxGeometry>
        </mxCell>
        <mxCell id="wIzm2T1jJwrxE7YObgyB-132" value="" style="endArrow=classic;html=1;rounded=0;entryX=0.5;entryY=0;entryDx=0;entryDy=0;exitX=0.5;exitY=1;exitDx=0;exitDy=0;" edge="1" parent="wIzm2T1jJwrxE7YObgyB-18" source="wIzm2T1jJwrxE7YObgyB-125" target="wIzm2T1jJwrxE7YObgyB-130">
          <mxGeometry width="50" height="50" relative="1" as="geometry">
            <mxPoint x="224.75" y="1698.75" as="sourcePoint" />
            <mxPoint x="224.95000000000005" y="1728.75" as="targetPoint" />
          </mxGeometry>
        </mxCell>
        <mxCell id="wIzm2T1jJwrxE7YObgyB-133" value="Передать заказ" style="rounded=1;whiteSpace=wrap;html=1;" vertex="1" parent="wIzm2T1jJwrxE7YObgyB-18">
          <mxGeometry x="180" y="1792" width="90" height="40" as="geometry" />
        </mxCell>
        <mxCell id="wIzm2T1jJwrxE7YObgyB-134" value="" style="endArrow=classic;html=1;rounded=0;exitX=0.5;exitY=1;exitDx=0;exitDy=0;" edge="1" parent="wIzm2T1jJwrxE7YObgyB-18">
          <mxGeometry width="50" height="50" relative="1" as="geometry">
            <mxPoint x="225" y="1760" as="sourcePoint" />
            <mxPoint x="225" y="1792" as="targetPoint" />
          </mxGeometry>
        </mxCell>
        <mxCell id="wIzm2T1jJwrxE7YObgyB-135" value="Изменить статус заказа" style="rounded=1;whiteSpace=wrap;html=1;" vertex="1" parent="wIzm2T1jJwrxE7YObgyB-18">
          <mxGeometry x="214" y="1930" width="90" height="40" as="geometry" />
        </mxCell>
        <mxCell id="wIzm2T1jJwrxE7YObgyB-136" value="" style="endArrow=classic;html=1;rounded=0;exitX=0;exitY=0.5;exitDx=0;exitDy=0;" edge="1" parent="wIzm2T1jJwrxE7YObgyB-18" source="wIzm2T1jJwrxE7YObgyB-135">
          <mxGeometry width="50" height="50" relative="1" as="geometry">
            <mxPoint x="180" y="1917.58" as="sourcePoint" />
            <mxPoint x="-240" y="1730" as="targetPoint" />
            <Array as="points">
              <mxPoint x="-240" y="1950" />
              <mxPoint x="-240" y="1754" />
            </Array>
          </mxGeometry>
        </mxCell>
        <mxCell id="wIzm2T1jJwrxE7YObgyB-137" value="" style="html=1;points=[[0,0,0,0,5],[0,1,0,0,-5],[1,0,0,0,5],[1,1,0,0,-5]];perimeter=orthogonalPerimeter;outlineConnect=0;targetShapes=umlLifeline;portConstraint=eastwest;newEdgeStyle={&quot;curved&quot;:0,&quot;rounded&quot;:0};fillColor=#f5f5f5;gradientColor=#b3b3b3;strokeColor=#666666;" vertex="1" parent="wIzm2T1jJwrxE7YObgyB-18">
          <mxGeometry x="187.5" y="1870" width="75" height="16.5" as="geometry" />
        </mxCell>
        <mxCell id="wIzm2T1jJwrxE7YObgyB-138" value="" style="endArrow=classic;html=1;rounded=0;exitX=0.5;exitY=1;exitDx=0;exitDy=0;" edge="1" parent="wIzm2T1jJwrxE7YObgyB-18" target="wIzm2T1jJwrxE7YObgyB-137">
          <mxGeometry width="50" height="50" relative="1" as="geometry">
            <mxPoint x="224.74" y="1832" as="sourcePoint" />
            <mxPoint x="224.74" y="1864" as="targetPoint" />
          </mxGeometry>
        </mxCell>
        <mxCell id="wIzm2T1jJwrxE7YObgyB-139" value="" style="endArrow=classic;html=1;rounded=0;exitX=0.5;exitY=1;exitDx=0;exitDy=0;entryX=0.403;entryY=0;entryDx=0;entryDy=0;entryPerimeter=0;" edge="1" parent="wIzm2T1jJwrxE7YObgyB-18" target="wIzm2T1jJwrxE7YObgyB-135">
          <mxGeometry width="50" height="50" relative="1" as="geometry">
            <mxPoint x="250" y="1886.5" as="sourcePoint" />
            <mxPoint x="250.26" y="1924.5" as="targetPoint" />
          </mxGeometry>
        </mxCell>
        <mxCell id="wIzm2T1jJwrxE7YObgyB-141" value="" style="endArrow=classic;html=1;rounded=0;exitX=0.5;exitY=1;exitDx=0;exitDy=0;entryX=1;entryY=0.25;entryDx=0;entryDy=0;" edge="1" parent="wIzm2T1jJwrxE7YObgyB-18" target="wIzm2T1jJwrxE7YObgyB-140">
          <mxGeometry width="50" height="50" relative="1" as="geometry">
            <mxPoint x="200" y="1886.5" as="sourcePoint" />
            <mxPoint x="200.26" y="1924.5" as="targetPoint" />
            <Array as="points">
              <mxPoint x="200" y="1930" />
            </Array>
          </mxGeometry>
        </mxCell>
        <mxCell id="wIzm2T1jJwrxE7YObgyB-246" value="" style="endArrow=classic;html=1;rounded=0;exitX=0;exitY=0.5;exitDx=0;exitDy=0;" edge="1" parent="wIzm2T1jJwrxE7YObgyB-18" source="wIzm2T1jJwrxE7YObgyB-245">
          <mxGeometry width="50" height="50" relative="1" as="geometry">
            <mxPoint x="167" y="800" as="sourcePoint" />
            <mxPoint x="-500" y="480" as="targetPoint" />
            <Array as="points">
              <mxPoint x="80" y="880" />
              <mxPoint x="80" y="450" />
              <mxPoint x="-500" y="450" />
            </Array>
          </mxGeometry>
        </mxCell>
        <mxCell id="wIzm2T1jJwrxE7YObgyB-249" value="" style="endArrow=classic;html=1;rounded=0;exitX=0;exitY=0.5;exitDx=0;exitDy=0;" edge="1" parent="wIzm2T1jJwrxE7YObgyB-18" source="wIzm2T1jJwrxE7YObgyB-241">
          <mxGeometry width="50" height="50" relative="1" as="geometry">
            <mxPoint x="440" y="940" as="sourcePoint" />
            <mxPoint x="-500.5" y="630" as="targetPoint" />
            <Array as="points">
              <mxPoint x="50" y="920" />
              <mxPoint x="50" y="600" />
              <mxPoint x="-500.5" y="600" />
            </Array>
          </mxGeometry>
        </mxCell>
        <mxCell id="wIzm2T1jJwrxE7YObgyB-264" value="&lt;span style=&quot;font-size: 8px;&quot;&gt;&amp;nbsp;Не добавлять сотрудника&lt;/span&gt;" style="text;html=1;align=center;verticalAlign=middle;whiteSpace=wrap;rounded=0;" vertex="1" parent="wIzm2T1jJwrxE7YObgyB-18">
          <mxGeometry x="280" y="770" width="32.5" height="16.5" as="geometry" />
        </mxCell>
        <mxCell id="wIzm2T1jJwrxE7YObgyB-19" value="Администратор" style="swimlane;" vertex="1" parent="1">
          <mxGeometry x="-110" width="390" height="2220" as="geometry" />
        </mxCell>
        <mxCell id="wIzm2T1jJwrxE7YObgyB-266" value="" style="edgeStyle=orthogonalEdgeStyle;rounded=0;orthogonalLoop=1;jettySize=auto;html=1;" edge="1" parent="wIzm2T1jJwrxE7YObgyB-19" source="wIzm2T1jJwrxE7YObgyB-189" target="wIzm2T1jJwrxE7YObgyB-191">
          <mxGeometry relative="1" as="geometry" />
        </mxCell>
        <mxCell id="wIzm2T1jJwrxE7YObgyB-189" value="" style="rhombus;whiteSpace=wrap;html=1;" vertex="1" parent="wIzm2T1jJwrxE7YObgyB-19">
          <mxGeometry x="140" y="100" width="30" height="40" as="geometry" />
        </mxCell>
        <mxCell id="wIzm2T1jJwrxE7YObgyB-190" value="" style="endArrow=classic;html=1;rounded=0;entryX=0.5;entryY=0;entryDx=0;entryDy=0;" edge="1" parent="wIzm2T1jJwrxE7YObgyB-19">
          <mxGeometry width="50" height="50" relative="1" as="geometry">
            <mxPoint x="154.67000000000007" y="70" as="sourcePoint" />
            <mxPoint x="154.67000000000007" y="100" as="targetPoint" />
          </mxGeometry>
        </mxCell>
        <mxCell id="wIzm2T1jJwrxE7YObgyB-191" value="" style="ellipse;whiteSpace=wrap;html=1;aspect=fixed;fillColor=#f5f5f5;gradientColor=#b3b3b3;strokeColor=#666666;" vertex="1" parent="wIzm2T1jJwrxE7YObgyB-19">
          <mxGeometry x="145" y="50" width="20" height="20" as="geometry" />
        </mxCell>
        <mxCell id="wIzm2T1jJwrxE7YObgyB-192" value="Посмотреть каталог товаров" style="rounded=1;whiteSpace=wrap;html=1;" vertex="1" parent="wIzm2T1jJwrxE7YObgyB-19">
          <mxGeometry x="87.5" y="210" width="115" height="40" as="geometry" />
        </mxCell>
        <mxCell id="wIzm2T1jJwrxE7YObgyB-193" value="" style="endArrow=classic;html=1;rounded=0;entryX=0.5;entryY=0;entryDx=0;entryDy=0;" edge="1" parent="wIzm2T1jJwrxE7YObgyB-19" target="wIzm2T1jJwrxE7YObgyB-192" source="wIzm2T1jJwrxE7YObgyB-202">
          <mxGeometry width="50" height="50" relative="1" as="geometry">
            <mxPoint x="120" y="190" as="sourcePoint" />
            <mxPoint x="130" y="220" as="targetPoint" />
          </mxGeometry>
        </mxCell>
        <mxCell id="wIzm2T1jJwrxE7YObgyB-195" value="добавить новый товар" style="rounded=1;whiteSpace=wrap;html=1;" vertex="1" parent="wIzm2T1jJwrxE7YObgyB-19">
          <mxGeometry x="80" y="390" width="62.5" height="50" as="geometry" />
        </mxCell>
        <mxCell id="wIzm2T1jJwrxE7YObgyB-196" value="" style="endArrow=classic;html=1;rounded=0;entryX=1;entryY=0.5;entryDx=0;entryDy=0;exitX=0.592;exitY=0.994;exitDx=0;exitDy=0;exitPerimeter=0;" edge="1" parent="wIzm2T1jJwrxE7YObgyB-19" source="wIzm2T1jJwrxE7YObgyB-195" target="wIzm2T1jJwrxE7YObgyB-201">
          <mxGeometry width="50" height="50" relative="1" as="geometry">
            <mxPoint x="119.75999999999999" y="440" as="sourcePoint" />
            <mxPoint x="119.75999999999999" y="470" as="targetPoint" />
            <Array as="points">
              <mxPoint x="110" y="470" />
            </Array>
          </mxGeometry>
        </mxCell>
        <mxCell id="wIzm2T1jJwrxE7YObgyB-198" value="" style="endArrow=classic;html=1;rounded=0;" edge="1" parent="wIzm2T1jJwrxE7YObgyB-19">
          <mxGeometry width="50" height="50" relative="1" as="geometry">
            <mxPoint x="120" y="310" as="sourcePoint" />
            <mxPoint x="120" y="350" as="targetPoint" />
          </mxGeometry>
        </mxCell>
        <mxCell id="wIzm2T1jJwrxE7YObgyB-199" value="" style="endArrow=classic;html=1;rounded=0;entryX=0;entryY=0.5;entryDx=0;entryDy=0;exitX=0;exitY=0.5;exitDx=0;exitDy=0;" edge="1" parent="wIzm2T1jJwrxE7YObgyB-19" source="wIzm2T1jJwrxE7YObgyB-195" target="wIzm2T1jJwrxE7YObgyB-189">
          <mxGeometry width="50" height="50" relative="1" as="geometry">
            <mxPoint x="30" y="415" as="sourcePoint" />
            <mxPoint x="105" y="170" as="targetPoint" />
            <Array as="points">
              <mxPoint x="20" y="415" />
              <mxPoint x="20" y="120" />
              <mxPoint x="40" y="120" />
            </Array>
          </mxGeometry>
        </mxCell>
        <mxCell id="wIzm2T1jJwrxE7YObgyB-201" value="Данные товара" style="rounded=0;whiteSpace=wrap;html=1;" vertex="1" parent="wIzm2T1jJwrxE7YObgyB-19">
          <mxGeometry x="-85" y="450" width="100" height="40" as="geometry" />
        </mxCell>
        <mxCell id="wIzm2T1jJwrxE7YObgyB-202" value="" style="html=1;points=[[0,0,0,0,5],[0,1,0,0,-5],[1,0,0,0,5],[1,1,0,0,-5]];perimeter=orthogonalPerimeter;outlineConnect=0;targetShapes=umlLifeline;portConstraint=eastwest;newEdgeStyle={&quot;curved&quot;:0,&quot;rounded&quot;:0};fillColor=#f5f5f5;gradientColor=#b3b3b3;strokeColor=#666666;" vertex="1" parent="wIzm2T1jJwrxE7YObgyB-19">
          <mxGeometry x="117.5" y="160" width="75" height="16.5" as="geometry" />
        </mxCell>
        <mxCell id="wIzm2T1jJwrxE7YObgyB-203" value="" style="endArrow=classic;html=1;rounded=0;" edge="1" parent="wIzm2T1jJwrxE7YObgyB-19">
          <mxGeometry width="50" height="50" relative="1" as="geometry">
            <mxPoint x="154.76000000000008" y="140" as="sourcePoint" />
            <mxPoint x="155" y="160" as="targetPoint" />
          </mxGeometry>
        </mxCell>
        <mxCell id="wIzm2T1jJwrxE7YObgyB-204" value="" style="endArrow=classic;html=1;rounded=0;entryX=0.5;entryY=0;entryDx=0;entryDy=0;exitX=1;exitY=0;exitDx=0;exitDy=5;exitPerimeter=0;" edge="1" parent="wIzm2T1jJwrxE7YObgyB-19" source="wIzm2T1jJwrxE7YObgyB-202" target="wIzm2T1jJwrxE7YObgyB-205">
          <mxGeometry width="50" height="50" relative="1" as="geometry">
            <mxPoint x="190" y="177" as="sourcePoint" />
            <mxPoint x="190" y="220" as="targetPoint" />
            <Array as="points">
              <mxPoint x="305" y="165" />
            </Array>
          </mxGeometry>
        </mxCell>
        <mxCell id="wIzm2T1jJwrxE7YObgyB-205" value="Посмотреть список заказов" style="rounded=1;whiteSpace=wrap;html=1;" vertex="1" parent="wIzm2T1jJwrxE7YObgyB-19">
          <mxGeometry x="260" y="220" width="90" height="50" as="geometry" />
        </mxCell>
        <mxCell id="wIzm2T1jJwrxE7YObgyB-206" value="" style="html=1;points=[[0,0,0,0,5],[0,1,0,0,-5],[1,0,0,0,5],[1,1,0,0,-5]];perimeter=orthogonalPerimeter;outlineConnect=0;targetShapes=umlLifeline;portConstraint=eastwest;newEdgeStyle={&quot;curved&quot;:0,&quot;rounded&quot;:0};fillColor=#f5f5f5;gradientColor=#b3b3b3;strokeColor=#666666;" vertex="1" parent="wIzm2T1jJwrxE7YObgyB-19">
          <mxGeometry x="82.5" y="350" width="75" height="16.5" as="geometry" />
        </mxCell>
        <mxCell id="wIzm2T1jJwrxE7YObgyB-207" value="Редактировать данные товара" style="rounded=1;whiteSpace=wrap;html=1;" vertex="1" parent="wIzm2T1jJwrxE7YObgyB-19">
          <mxGeometry x="170" y="390" width="90" height="50" as="geometry" />
        </mxCell>
        <mxCell id="wIzm2T1jJwrxE7YObgyB-208" value="" style="endArrow=classic;html=1;rounded=0;exitX=0.376;exitY=0.983;exitDx=0;exitDy=0;exitPerimeter=0;" edge="1" parent="wIzm2T1jJwrxE7YObgyB-19" source="wIzm2T1jJwrxE7YObgyB-207">
          <mxGeometry width="50" height="50" relative="1" as="geometry">
            <mxPoint x="163" y="440" as="sourcePoint" />
            <mxPoint x="110" y="470" as="targetPoint" />
            <Array as="points">
              <mxPoint x="204" y="470" />
            </Array>
          </mxGeometry>
        </mxCell>
        <mxCell id="wIzm2T1jJwrxE7YObgyB-209" value="" style="endArrow=classic;html=1;rounded=0;exitX=0.5;exitY=1;exitDx=0;exitDy=0;" edge="1" parent="wIzm2T1jJwrxE7YObgyB-19">
          <mxGeometry width="50" height="50" relative="1" as="geometry">
            <mxPoint x="90" y="366.5" as="sourcePoint" />
            <mxPoint x="90" y="390" as="targetPoint" />
          </mxGeometry>
        </mxCell>
        <mxCell id="wIzm2T1jJwrxE7YObgyB-210" value="" style="endArrow=classic;html=1;rounded=0;entryX=0.545;entryY=-0.036;entryDx=0;entryDy=0;entryPerimeter=0;" edge="1" parent="wIzm2T1jJwrxE7YObgyB-19" source="wIzm2T1jJwrxE7YObgyB-206" target="wIzm2T1jJwrxE7YObgyB-207">
          <mxGeometry width="50" height="50" relative="1" as="geometry">
            <mxPoint x="154.8" y="366.5" as="sourcePoint" />
            <mxPoint x="154.8" y="390" as="targetPoint" />
            <Array as="points">
              <mxPoint x="220" y="360" />
            </Array>
          </mxGeometry>
        </mxCell>
        <mxCell id="wIzm2T1jJwrxE7YObgyB-211" value="" style="endArrow=classic;html=1;rounded=0;exitX=0.5;exitY=1;exitDx=0;exitDy=0;" edge="1" parent="wIzm2T1jJwrxE7YObgyB-19">
          <mxGeometry width="50" height="50" relative="1" as="geometry">
            <mxPoint x="130" y="366.5" as="sourcePoint" />
            <mxPoint x="130" y="530" as="targetPoint" />
            <Array as="points">
              <mxPoint x="130" y="380" />
              <mxPoint x="160" y="380" />
              <mxPoint x="160" y="500" />
              <mxPoint x="130" y="500" />
            </Array>
          </mxGeometry>
        </mxCell>
        <mxCell id="wIzm2T1jJwrxE7YObgyB-212" value="Удалить товар из каталога" style="rounded=1;whiteSpace=wrap;html=1;" vertex="1" parent="wIzm2T1jJwrxE7YObgyB-19">
          <mxGeometry x="95" y="530" width="75" height="50" as="geometry" />
        </mxCell>
        <mxCell id="wIzm2T1jJwrxE7YObgyB-214" value="" style="endArrow=classic;html=1;rounded=0;exitX=1;exitY=0.5;exitDx=0;exitDy=0;" edge="1" parent="wIzm2T1jJwrxE7YObgyB-19" source="wIzm2T1jJwrxE7YObgyB-207">
          <mxGeometry width="50" height="50" relative="1" as="geometry">
            <mxPoint x="240" y="380" as="sourcePoint" />
            <mxPoint x="20" y="320" as="targetPoint" />
            <Array as="points">
              <mxPoint x="270" y="415" />
              <mxPoint x="270" y="370" />
              <mxPoint x="270" y="320" />
            </Array>
          </mxGeometry>
        </mxCell>
        <mxCell id="wIzm2T1jJwrxE7YObgyB-219" value="Изменить статус заказа" style="rounded=1;whiteSpace=wrap;html=1;" vertex="1" parent="wIzm2T1jJwrxE7YObgyB-19">
          <mxGeometry x="260" y="670" width="90" height="40" as="geometry" />
        </mxCell>
        <mxCell id="wIzm2T1jJwrxE7YObgyB-213" value="" style="endArrow=classic;html=1;rounded=0;exitX=0.556;exitY=1;exitDx=0;exitDy=0;entryX=0.414;entryY=-0.03;entryDx=0;entryDy=0;exitPerimeter=0;entryPerimeter=0;" edge="1" parent="wIzm2T1jJwrxE7YObgyB-19" source="wIzm2T1jJwrxE7YObgyB-205" target="wIzm2T1jJwrxE7YObgyB-227">
          <mxGeometry width="50" height="50" relative="1" as="geometry">
            <mxPoint x="357.49999999999955" y="245" as="sourcePoint" />
            <mxPoint x="252.5" y="600" as="targetPoint" />
            <Array as="points">
              <mxPoint x="350" y="320" />
              <mxPoint x="350" y="570" />
              <mxPoint x="300" y="570" />
            </Array>
          </mxGeometry>
        </mxCell>
        <mxCell id="wIzm2T1jJwrxE7YObgyB-222" value="Выбрать нужный товар" style="rounded=1;whiteSpace=wrap;html=1;" vertex="1" parent="wIzm2T1jJwrxE7YObgyB-19">
          <mxGeometry x="75" y="270" width="85" height="40" as="geometry" />
        </mxCell>
        <mxCell id="wIzm2T1jJwrxE7YObgyB-224" value="" style="endArrow=classic;html=1;rounded=0;entryX=0.5;entryY=0;entryDx=0;entryDy=0;" edge="1" parent="wIzm2T1jJwrxE7YObgyB-19" target="wIzm2T1jJwrxE7YObgyB-222">
          <mxGeometry width="50" height="50" relative="1" as="geometry">
            <mxPoint x="118" y="250" as="sourcePoint" />
            <mxPoint x="107.5" y="264" as="targetPoint" />
          </mxGeometry>
        </mxCell>
        <mxCell id="wIzm2T1jJwrxE7YObgyB-227" value="Выбрать нужный заказ" style="rounded=1;whiteSpace=wrap;html=1;" vertex="1" parent="wIzm2T1jJwrxE7YObgyB-19">
          <mxGeometry x="265" y="600" width="85" height="40" as="geometry" />
        </mxCell>
        <mxCell id="wIzm2T1jJwrxE7YObgyB-228" value="" style="endArrow=classic;html=1;rounded=0;exitX=0.452;exitY=0.97;exitDx=0;exitDy=0;entryX=0.5;entryY=0;entryDx=0;entryDy=0;exitPerimeter=0;" edge="1" parent="wIzm2T1jJwrxE7YObgyB-19" source="wIzm2T1jJwrxE7YObgyB-227" target="wIzm2T1jJwrxE7YObgyB-219">
          <mxGeometry width="50" height="50" relative="1" as="geometry">
            <mxPoint x="244.79" y="640" as="sourcePoint" />
            <mxPoint x="244.79" y="663.5" as="targetPoint" />
          </mxGeometry>
        </mxCell>
        <mxCell id="wIzm2T1jJwrxE7YObgyB-231" value="Посмотреть список сотрудников" style="rounded=1;whiteSpace=wrap;html=1;" vertex="1" parent="wIzm2T1jJwrxE7YObgyB-19">
          <mxGeometry x="27.5" y="610" width="115" height="40" as="geometry" />
        </mxCell>
        <mxCell id="wIzm2T1jJwrxE7YObgyB-232" value="" style="endArrow=classic;html=1;rounded=0;entryX=0.5;entryY=0;entryDx=0;entryDy=0;" edge="1" parent="wIzm2T1jJwrxE7YObgyB-19">
          <mxGeometry width="50" height="50" relative="1" as="geometry">
            <mxPoint x="62.5" y="650" as="sourcePoint" />
            <mxPoint x="63" y="680" as="targetPoint" />
          </mxGeometry>
        </mxCell>
        <mxCell id="wIzm2T1jJwrxE7YObgyB-233" value="Выбрать нужного сотрудника" style="rounded=1;whiteSpace=wrap;html=1;" vertex="1" parent="wIzm2T1jJwrxE7YObgyB-19">
          <mxGeometry x="22.5" y="680" width="110" height="40" as="geometry" />
        </mxCell>
        <mxCell id="wIzm2T1jJwrxE7YObgyB-234" value="добавить нового сотрудника" style="rounded=1;whiteSpace=wrap;html=1;" vertex="1" parent="wIzm2T1jJwrxE7YObgyB-19">
          <mxGeometry x="30" y="770" width="75" height="50" as="geometry" />
        </mxCell>
        <mxCell id="wIzm2T1jJwrxE7YObgyB-235" value="" style="endArrow=classic;html=1;rounded=0;" edge="1" parent="wIzm2T1jJwrxE7YObgyB-19">
          <mxGeometry width="50" height="50" relative="1" as="geometry">
            <mxPoint x="87.5" y="720" as="sourcePoint" />
            <mxPoint x="87.5" y="740" as="targetPoint" />
          </mxGeometry>
        </mxCell>
        <mxCell id="wIzm2T1jJwrxE7YObgyB-236" value="" style="html=1;points=[[0,0,0,0,5],[0,1,0,0,-5],[1,0,0,0,5],[1,1,0,0,-5]];perimeter=orthogonalPerimeter;outlineConnect=0;targetShapes=umlLifeline;portConstraint=eastwest;newEdgeStyle={&quot;curved&quot;:0,&quot;rounded&quot;:0};fillColor=#f5f5f5;gradientColor=#b3b3b3;strokeColor=#666666;" vertex="1" parent="wIzm2T1jJwrxE7YObgyB-19">
          <mxGeometry x="55" y="740" width="95" height="10" as="geometry" />
        </mxCell>
        <mxCell id="wIzm2T1jJwrxE7YObgyB-237" value="Редактировать данные сотрудника" style="rounded=1;whiteSpace=wrap;html=1;" vertex="1" parent="wIzm2T1jJwrxE7YObgyB-19">
          <mxGeometry x="120" y="770" width="90" height="50" as="geometry" />
        </mxCell>
        <mxCell id="wIzm2T1jJwrxE7YObgyB-238" value="" style="endArrow=classic;html=1;rounded=0;" edge="1" parent="wIzm2T1jJwrxE7YObgyB-19">
          <mxGeometry width="50" height="50" relative="1" as="geometry">
            <mxPoint x="74.64" y="750" as="sourcePoint" />
            <mxPoint x="74.64" y="770" as="targetPoint" />
          </mxGeometry>
        </mxCell>
        <mxCell id="wIzm2T1jJwrxE7YObgyB-239" value="" style="endArrow=classic;html=1;rounded=0;entryX=0.25;entryY=0;entryDx=0;entryDy=0;" edge="1" parent="wIzm2T1jJwrxE7YObgyB-19" source="wIzm2T1jJwrxE7YObgyB-236" target="wIzm2T1jJwrxE7YObgyB-237">
          <mxGeometry width="50" height="50" relative="1" as="geometry">
            <mxPoint x="122.30000000000001" y="776.5" as="sourcePoint" />
            <mxPoint x="122.5" y="770" as="targetPoint" />
            <Array as="points">
              <mxPoint x="140" y="750" />
            </Array>
          </mxGeometry>
        </mxCell>
        <mxCell id="wIzm2T1jJwrxE7YObgyB-240" value="" style="endArrow=classic;html=1;rounded=0;entryX=0.5;entryY=0;entryDx=0;entryDy=0;" edge="1" parent="wIzm2T1jJwrxE7YObgyB-19" target="wIzm2T1jJwrxE7YObgyB-241">
          <mxGeometry width="50" height="50" relative="1" as="geometry">
            <mxPoint x="112.32" y="750" as="sourcePoint" />
            <mxPoint x="112.32" y="840" as="targetPoint" />
          </mxGeometry>
        </mxCell>
        <mxCell id="wIzm2T1jJwrxE7YObgyB-241" value="Удалить сотрудника" style="rounded=1;whiteSpace=wrap;html=1;" vertex="1" parent="wIzm2T1jJwrxE7YObgyB-19">
          <mxGeometry x="75" y="900" width="75" height="50" as="geometry" />
        </mxCell>
        <mxCell id="wIzm2T1jJwrxE7YObgyB-229" value="" style="endArrow=classic;html=1;rounded=0;exitX=0;exitY=1;exitDx=0;exitDy=-5;exitPerimeter=0;entryX=0.5;entryY=0;entryDx=0;entryDy=0;" edge="1" parent="wIzm2T1jJwrxE7YObgyB-19" source="wIzm2T1jJwrxE7YObgyB-202" target="wIzm2T1jJwrxE7YObgyB-231">
          <mxGeometry width="50" height="50" relative="1" as="geometry">
            <mxPoint x="128" y="187" as="sourcePoint" />
            <mxPoint x="30" y="610" as="targetPoint" />
            <Array as="points">
              <mxPoint x="40" y="170" />
              <mxPoint x="40" y="590" />
              <mxPoint x="85" y="590" />
            </Array>
          </mxGeometry>
        </mxCell>
        <mxCell id="wIzm2T1jJwrxE7YObgyB-247" value="" style="endArrow=classic;html=1;rounded=0;exitX=0.544;exitY=1.042;exitDx=0;exitDy=0;exitPerimeter=0;entryX=1;entryY=0.5;entryDx=0;entryDy=0;" edge="1" parent="wIzm2T1jJwrxE7YObgyB-19" source="wIzm2T1jJwrxE7YObgyB-234" target="wIzm2T1jJwrxE7YObgyB-245">
          <mxGeometry width="50" height="50" relative="1" as="geometry">
            <mxPoint x="101.5" y="820" as="sourcePoint" />
            <mxPoint x="40" y="850" as="targetPoint" />
            <Array as="points">
              <mxPoint x="70" y="880" />
            </Array>
          </mxGeometry>
        </mxCell>
        <mxCell id="wIzm2T1jJwrxE7YObgyB-248" value="" style="endArrow=classic;html=1;rounded=0;exitX=0.544;exitY=1.042;exitDx=0;exitDy=0;exitPerimeter=0;" edge="1" parent="wIzm2T1jJwrxE7YObgyB-19">
          <mxGeometry width="50" height="50" relative="1" as="geometry">
            <mxPoint x="170" y="820" as="sourcePoint" />
            <mxPoint x="70" y="880" as="targetPoint" />
            <Array as="points">
              <mxPoint x="170" y="880" />
            </Array>
          </mxGeometry>
        </mxCell>
        <mxCell id="wIzm2T1jJwrxE7YObgyB-253" value="&lt;font style=&quot;font-size: 8px;&quot;&gt;Решил посмотреть заказы&lt;/font&gt;" style="text;html=1;align=center;verticalAlign=middle;whiteSpace=wrap;rounded=0;" vertex="1" parent="wIzm2T1jJwrxE7YObgyB-19">
          <mxGeometry x="210" y="130" width="90" height="30" as="geometry" />
        </mxCell>
        <mxCell id="wIzm2T1jJwrxE7YObgyB-254" value="&lt;font style=&quot;font-size: 8px;&quot;&gt;Решил посмотреть товары&lt;/font&gt;" style="text;html=1;align=center;verticalAlign=middle;whiteSpace=wrap;rounded=0;" vertex="1" parent="wIzm2T1jJwrxE7YObgyB-19">
          <mxGeometry x="142.5" y="180" width="120" height="16.5" as="geometry" />
        </mxCell>
        <mxCell id="wIzm2T1jJwrxE7YObgyB-255" value="&lt;font style=&quot;font-size: 8px;&quot;&gt;Решил посмотреть сотрудников&lt;/font&gt;" style="text;html=1;align=center;verticalAlign=middle;whiteSpace=wrap;rounded=0;" vertex="1" parent="wIzm2T1jJwrxE7YObgyB-19">
          <mxGeometry x="30" y="140" width="90" height="30" as="geometry" />
        </mxCell>
        <mxCell id="wIzm2T1jJwrxE7YObgyB-256" value="&lt;span style=&quot;font-size: 8px;&quot;&gt;Решил не менять информацию о товаре&lt;/span&gt;" style="text;html=1;align=center;verticalAlign=middle;whiteSpace=wrap;rounded=0;" vertex="1" parent="wIzm2T1jJwrxE7YObgyB-19">
          <mxGeometry x="275" y="366.5" width="60" height="16.5" as="geometry" />
        </mxCell>
        <mxCell id="wIzm2T1jJwrxE7YObgyB-258" value="&lt;span style=&quot;font-size: 8px;&quot;&gt;Решил не удалять товар&lt;/span&gt;" style="text;html=1;align=center;verticalAlign=middle;whiteSpace=wrap;rounded=0;" vertex="1" parent="wIzm2T1jJwrxE7YObgyB-19">
          <mxGeometry x="185" y="513.5" width="60" height="16.5" as="geometry" />
        </mxCell>
        <mxCell id="wIzm2T1jJwrxE7YObgyB-257" value="&lt;span style=&quot;font-size: 8px;&quot;&gt;Решил не добавлять товар&lt;/span&gt;" style="text;html=1;align=center;verticalAlign=middle;whiteSpace=wrap;rounded=0;" vertex="1" parent="wIzm2T1jJwrxE7YObgyB-19">
          <mxGeometry x="37.5" y="383" width="32.5" height="16.5" as="geometry" />
        </mxCell>
        <mxCell id="wIzm2T1jJwrxE7YObgyB-259" value="" style="endArrow=classic;html=1;rounded=0;exitX=-0.029;exitY=0.52;exitDx=0;exitDy=0;exitPerimeter=0;" edge="1" parent="wIzm2T1jJwrxE7YObgyB-19" source="wIzm2T1jJwrxE7YObgyB-234">
          <mxGeometry width="50" height="50" relative="1" as="geometry">
            <mxPoint x="25" y="810" as="sourcePoint" />
            <mxPoint x="30" y="410" as="targetPoint" />
            <Array as="points">
              <mxPoint x="10" y="796" />
            </Array>
          </mxGeometry>
        </mxCell>
        <mxCell id="wIzm2T1jJwrxE7YObgyB-245" value="Данные сотрудника" style="rounded=0;whiteSpace=wrap;html=1;" vertex="1" parent="wIzm2T1jJwrxE7YObgyB-19">
          <mxGeometry x="-57.5" y="860" width="100" height="40" as="geometry" />
        </mxCell>
        <mxCell id="wIzm2T1jJwrxE7YObgyB-261" value="" style="endArrow=classic;html=1;rounded=0;exitX=1;exitY=0.5;exitDx=0;exitDy=0;" edge="1" parent="wIzm2T1jJwrxE7YObgyB-19" source="wIzm2T1jJwrxE7YObgyB-241">
          <mxGeometry width="50" height="50" relative="1" as="geometry">
            <mxPoint x="242.5" y="885" as="sourcePoint" />
            <mxPoint x="220" y="790" as="targetPoint" />
            <Array as="points">
              <mxPoint x="220" y="925" />
              <mxPoint x="220" y="860" />
            </Array>
          </mxGeometry>
        </mxCell>
        <mxCell id="wIzm2T1jJwrxE7YObgyB-262" value="&lt;span style=&quot;font-size: 8px;&quot;&gt;Не менять информацию о сотруднике&lt;/span&gt;" style="text;html=1;align=center;verticalAlign=middle;whiteSpace=wrap;rounded=0;" vertex="1" parent="wIzm2T1jJwrxE7YObgyB-19">
          <mxGeometry x="225" y="750" width="60" height="16.5" as="geometry" />
        </mxCell>
        <mxCell id="wIzm2T1jJwrxE7YObgyB-263" value="&lt;span style=&quot;font-size: 8px;&quot;&gt;Не удалять сотрудника&lt;/span&gt;" style="text;html=1;align=center;verticalAlign=middle;whiteSpace=wrap;rounded=0;" vertex="1" parent="wIzm2T1jJwrxE7YObgyB-19">
          <mxGeometry x="157.5" y="933.5" width="60" height="16.5" as="geometry" />
        </mxCell>
        <mxCell id="wIzm2T1jJwrxE7YObgyB-279" value="" style="endArrow=classic;html=1;rounded=0;exitX=-0.006;exitY=0.589;exitDx=0;exitDy=0;exitPerimeter=0;" edge="1" parent="wIzm2T1jJwrxE7YObgyB-19" source="wIzm2T1jJwrxE7YObgyB-278">
          <mxGeometry width="50" height="50" relative="1" as="geometry">
            <mxPoint x="275" y="1010" as="sourcePoint" />
            <mxPoint x="-820" y="800" as="targetPoint" />
            <Array as="points">
              <mxPoint x="260" y="944" />
              <mxPoint x="260" y="1010" />
              <mxPoint x="-530" y="1000" />
              <mxPoint x="-530" y="760" />
              <mxPoint x="-820" y="760" />
            </Array>
          </mxGeometry>
        </mxCell>
        <mxCell id="wIzm2T1jJwrxE7YObgyB-20" value="Маркетолог" style="swimlane;" vertex="1" parent="1">
          <mxGeometry x="280" width="320" height="2220" as="geometry" />
        </mxCell>
        <mxCell id="wIzm2T1jJwrxE7YObgyB-267" value="" style="edgeStyle=orthogonalEdgeStyle;rounded=0;orthogonalLoop=1;jettySize=auto;html=1;" edge="1" parent="wIzm2T1jJwrxE7YObgyB-20" source="wIzm2T1jJwrxE7YObgyB-268" target="wIzm2T1jJwrxE7YObgyB-269">
          <mxGeometry relative="1" as="geometry" />
        </mxCell>
        <mxCell id="wIzm2T1jJwrxE7YObgyB-268" value="" style="rhombus;whiteSpace=wrap;html=1;" vertex="1" parent="wIzm2T1jJwrxE7YObgyB-20">
          <mxGeometry x="142.5" y="90" width="30" height="40" as="geometry" />
        </mxCell>
        <mxCell id="wIzm2T1jJwrxE7YObgyB-269" value="" style="ellipse;whiteSpace=wrap;html=1;aspect=fixed;fillColor=#f5f5f5;gradientColor=#b3b3b3;strokeColor=#666666;" vertex="1" parent="wIzm2T1jJwrxE7YObgyB-20">
          <mxGeometry x="147.5" y="40" width="20" height="20" as="geometry" />
        </mxCell>
        <mxCell id="wIzm2T1jJwrxE7YObgyB-270" value="Посмотреть каталог товаров" style="rounded=1;whiteSpace=wrap;html=1;" vertex="1" parent="wIzm2T1jJwrxE7YObgyB-20">
          <mxGeometry x="102.5" y="150" width="115" height="40" as="geometry" />
        </mxCell>
        <mxCell id="wIzm2T1jJwrxE7YObgyB-271" value="" style="endArrow=classic;html=1;rounded=0;" edge="1" parent="wIzm2T1jJwrxE7YObgyB-20">
          <mxGeometry width="50" height="50" relative="1" as="geometry">
            <mxPoint x="157.2600000000001" y="130" as="sourcePoint" />
            <mxPoint x="157.5" y="150" as="targetPoint" />
          </mxGeometry>
        </mxCell>
        <mxCell id="wIzm2T1jJwrxE7YObgyB-273" value="Выбрать нужный товар" style="rounded=1;whiteSpace=wrap;html=1;" vertex="1" parent="wIzm2T1jJwrxE7YObgyB-20">
          <mxGeometry x="115" y="210" width="85" height="40" as="geometry" />
        </mxCell>
        <mxCell id="wIzm2T1jJwrxE7YObgyB-274" value="" style="endArrow=classic;html=1;rounded=0;entryX=0.5;entryY=0;entryDx=0;entryDy=0;" edge="1" parent="wIzm2T1jJwrxE7YObgyB-20" target="wIzm2T1jJwrxE7YObgyB-273">
          <mxGeometry width="50" height="50" relative="1" as="geometry">
            <mxPoint x="158" y="190" as="sourcePoint" />
            <mxPoint x="147.5" y="204" as="targetPoint" />
          </mxGeometry>
        </mxCell>
        <mxCell id="wIzm2T1jJwrxE7YObgyB-275" value="Изменить скидку товара" style="rounded=1;whiteSpace=wrap;html=1;" vertex="1" parent="wIzm2T1jJwrxE7YObgyB-20">
          <mxGeometry x="115" y="270" width="85" height="40" as="geometry" />
        </mxCell>
        <mxCell id="wIzm2T1jJwrxE7YObgyB-276" value="" style="endArrow=classic;html=1;rounded=0;entryX=0.5;entryY=0;entryDx=0;entryDy=0;" edge="1" parent="wIzm2T1jJwrxE7YObgyB-20" target="wIzm2T1jJwrxE7YObgyB-275">
          <mxGeometry width="50" height="50" relative="1" as="geometry">
            <mxPoint x="158" y="250" as="sourcePoint" />
            <mxPoint x="147.5" y="264" as="targetPoint" />
          </mxGeometry>
        </mxCell>
        <mxCell id="wIzm2T1jJwrxE7YObgyB-278" value="Данные скидки" style="rounded=0;whiteSpace=wrap;html=1;" vertex="1" parent="wIzm2T1jJwrxE7YObgyB-20">
          <mxGeometry x="-70" y="920" width="100" height="40" as="geometry" />
        </mxCell>
        <mxCell id="wIzm2T1jJwrxE7YObgyB-277" value="" style="endArrow=classic;html=1;rounded=0;exitX=0.5;exitY=1;exitDx=0;exitDy=0;entryX=1;entryY=0.5;entryDx=0;entryDy=0;" edge="1" parent="wIzm2T1jJwrxE7YObgyB-20" source="wIzm2T1jJwrxE7YObgyB-275" target="wIzm2T1jJwrxE7YObgyB-278">
          <mxGeometry width="50" height="50" relative="1" as="geometry">
            <mxPoint x="168" y="260" as="sourcePoint" />
            <mxPoint x="160" y="960" as="targetPoint" />
            <Array as="points">
              <mxPoint x="160" y="940" />
            </Array>
          </mxGeometry>
        </mxCell>
        <mxCell id="wIzm2T1jJwrxE7YObgyB-282" value="" style="endArrow=classic;html=1;rounded=0;exitX=0;exitY=0.5;exitDx=0;exitDy=0;" edge="1" parent="wIzm2T1jJwrxE7YObgyB-20" source="wIzm2T1jJwrxE7YObgyB-275">
          <mxGeometry width="50" height="50" relative="1" as="geometry">
            <mxPoint x="40" y="290" as="sourcePoint" />
            <mxPoint x="140" y="110" as="targetPoint" />
            <Array as="points">
              <mxPoint x="60" y="290" />
              <mxPoint x="60" y="110" />
            </Array>
          </mxGeometry>
        </mxCell>
        <mxCell id="wIzm2T1jJwrxE7YObgyB-283" value="Решил не менять скидку" style="text;html=1;align=center;verticalAlign=middle;whiteSpace=wrap;rounded=0;" vertex="1" parent="wIzm2T1jJwrxE7YObgyB-20">
          <mxGeometry y="240" width="50" height="60" as="geometry" />
        </mxCell>
        <mxCell id="wIzm2T1jJwrxE7YObgyB-84" value="" style="endArrow=classic;html=1;rounded=0;entryX=1;entryY=0.5;entryDx=0;entryDy=0;" edge="1" parent="1" source="wIzm2T1jJwrxE7YObgyB-79" target="wIzm2T1jJwrxE7YObgyB-81">
          <mxGeometry width="50" height="50" relative="1" as="geometry">
            <mxPoint x="-1221.08" y="1029.72" as="sourcePoint" />
            <mxPoint x="-1107" y="1030" as="targetPoint" />
          </mxGeometry>
        </mxCell>
        <mxCell id="wIzm2T1jJwrxE7YObgyB-94" value="" style="endArrow=classic;html=1;rounded=0;exitX=1;exitY=0.5;exitDx=0;exitDy=0;" edge="1" parent="1" source="wIzm2T1jJwrxE7YObgyB-88" target="wIzm2T1jJwrxE7YObgyB-93">
          <mxGeometry width="50" height="50" relative="1" as="geometry">
            <mxPoint x="-1148.5" y="960" as="sourcePoint" />
            <mxPoint x="-1032.5" y="960.14" as="targetPoint" />
          </mxGeometry>
        </mxCell>
        <mxCell id="wIzm2T1jJwrxE7YObgyB-114" value="" style="endArrow=classic;html=1;rounded=0;exitX=0;exitY=0.5;exitDx=0;exitDy=0;" edge="1" parent="1" source="wIzm2T1jJwrxE7YObgyB-110" target="wIzm2T1jJwrxE7YObgyB-112">
          <mxGeometry width="50" height="50" relative="1" as="geometry">
            <mxPoint x="-870" y="1510" as="sourcePoint" />
            <mxPoint x="-870" y="1583.5" as="targetPoint" />
          </mxGeometry>
        </mxCell>
        <mxCell id="wIzm2T1jJwrxE7YObgyB-155" value="" style="endArrow=classic;html=1;rounded=0;entryX=1;entryY=0.5;entryDx=0;entryDy=0;exitX=0;exitY=0.5;exitDx=0;exitDy=0;" edge="1" parent="1" source="wIzm2T1jJwrxE7YObgyB-113" target="wIzm2T1jJwrxE7YObgyB-154">
          <mxGeometry width="50" height="50" relative="1" as="geometry">
            <mxPoint x="-1153" y="1530" as="sourcePoint" />
            <mxPoint x="-1153" y="1590" as="targetPoint" />
          </mxGeometry>
        </mxCell>
        <mxCell id="wIzm2T1jJwrxE7YObgyB-183" value="" style="endArrow=classic;html=1;rounded=0;exitX=0;exitY=0.5;exitDx=0;exitDy=0;" edge="1" parent="1" source="wIzm2T1jJwrxE7YObgyB-54">
          <mxGeometry width="50" height="50" relative="1" as="geometry">
            <mxPoint x="-1395.19" y="720" as="sourcePoint" />
            <mxPoint x="-1600" y="760" as="targetPoint" />
          </mxGeometry>
        </mxCell>
        <mxCell id="wIzm2T1jJwrxE7YObgyB-215" value="" style="endArrow=classic;html=1;rounded=0;exitX=1;exitY=0.5;exitDx=0;exitDy=0;" edge="1" parent="1" source="wIzm2T1jJwrxE7YObgyB-212">
          <mxGeometry width="50" height="50" relative="1" as="geometry">
            <mxPoint x="54.80000000000001" y="376.5" as="sourcePoint" />
            <mxPoint x="160" y="410" as="targetPoint" />
            <Array as="points">
              <mxPoint x="160" y="555" />
            </Array>
          </mxGeometry>
        </mxCell>
        <mxCell id="wIzm2T1jJwrxE7YObgyB-216" value="" style="endArrow=classic;html=1;rounded=0;exitX=0;exitY=0.5;exitDx=0;exitDy=0;" edge="1" parent="1" source="wIzm2T1jJwrxE7YObgyB-201">
          <mxGeometry width="50" height="50" relative="1" as="geometry">
            <mxPoint x="-251" y="430" as="sourcePoint" />
            <mxPoint x="-918" y="110" as="targetPoint" />
            <Array as="points">
              <mxPoint x="-240" y="470" />
              <mxPoint x="-240" y="80" />
              <mxPoint x="-918" y="80" />
            </Array>
          </mxGeometry>
        </mxCell>
        <mxCell id="wIzm2T1jJwrxE7YObgyB-225" value="" style="endArrow=classic;html=1;rounded=0;entryX=0.5;entryY=0;entryDx=0;entryDy=0;exitX=0;exitY=0.5;exitDx=0;exitDy=0;" edge="1" parent="1" source="wIzm2T1jJwrxE7YObgyB-212" target="wIzm2T1jJwrxE7YObgyB-221">
          <mxGeometry width="50" height="50" relative="1" as="geometry">
            <mxPoint x="-142" y="520" as="sourcePoint" />
            <mxPoint x="-216" y="550" as="targetPoint" />
            <Array as="points">
              <mxPoint x="-300" y="550" />
              <mxPoint x="-300" y="250" />
              <mxPoint x="-910" y="250" />
            </Array>
          </mxGeometry>
        </mxCell>
        <mxCell id="wIzm2T1jJwrxE7YObgyB-252" value="Менеджер" style="swimlane;" vertex="1" parent="1">
          <mxGeometry x="600" width="320" height="2220" as="geometry" />
        </mxCell>
        <mxCell id="wIzm2T1jJwrxE7YObgyB-285" value="" style="edgeStyle=orthogonalEdgeStyle;rounded=0;orthogonalLoop=1;jettySize=auto;html=1;" edge="1" parent="wIzm2T1jJwrxE7YObgyB-252" source="wIzm2T1jJwrxE7YObgyB-286" target="wIzm2T1jJwrxE7YObgyB-287">
          <mxGeometry relative="1" as="geometry" />
        </mxCell>
        <mxCell id="wIzm2T1jJwrxE7YObgyB-286" value="" style="rhombus;whiteSpace=wrap;html=1;" vertex="1" parent="wIzm2T1jJwrxE7YObgyB-252">
          <mxGeometry x="152.5" y="90" width="30" height="40" as="geometry" />
        </mxCell>
        <mxCell id="wIzm2T1jJwrxE7YObgyB-287" value="" style="ellipse;whiteSpace=wrap;html=1;aspect=fixed;fillColor=#f5f5f5;gradientColor=#b3b3b3;strokeColor=#666666;" vertex="1" parent="wIzm2T1jJwrxE7YObgyB-252">
          <mxGeometry x="157.5" y="40" width="20" height="20" as="geometry" />
        </mxCell>
        <mxCell id="wIzm2T1jJwrxE7YObgyB-288" value="Посмотреть каталог товаров" style="rounded=1;whiteSpace=wrap;html=1;" vertex="1" parent="wIzm2T1jJwrxE7YObgyB-252">
          <mxGeometry x="112.5" y="150" width="115" height="40" as="geometry" />
        </mxCell>
        <mxCell id="wIzm2T1jJwrxE7YObgyB-289" value="" style="endArrow=classic;html=1;rounded=0;" edge="1" parent="wIzm2T1jJwrxE7YObgyB-252">
          <mxGeometry width="50" height="50" relative="1" as="geometry">
            <mxPoint x="167.2600000000001" y="130" as="sourcePoint" />
            <mxPoint x="167.5" y="150" as="targetPoint" />
          </mxGeometry>
        </mxCell>
        <mxCell id="wIzm2T1jJwrxE7YObgyB-290" value="Выбрать нужный товар" style="rounded=1;whiteSpace=wrap;html=1;" vertex="1" parent="wIzm2T1jJwrxE7YObgyB-252">
          <mxGeometry x="125" y="210" width="85" height="40" as="geometry" />
        </mxCell>
        <mxCell id="wIzm2T1jJwrxE7YObgyB-291" value="" style="endArrow=classic;html=1;rounded=0;entryX=0.5;entryY=0;entryDx=0;entryDy=0;" edge="1" parent="wIzm2T1jJwrxE7YObgyB-252" target="wIzm2T1jJwrxE7YObgyB-290">
          <mxGeometry width="50" height="50" relative="1" as="geometry">
            <mxPoint x="168" y="190" as="sourcePoint" />
            <mxPoint x="157.5" y="204" as="targetPoint" />
          </mxGeometry>
        </mxCell>
        <mxCell id="wIzm2T1jJwrxE7YObgyB-292" value="Изменить стоимость товара" style="rounded=1;whiteSpace=wrap;html=1;" vertex="1" parent="wIzm2T1jJwrxE7YObgyB-252">
          <mxGeometry x="125" y="270" width="85" height="40" as="geometry" />
        </mxCell>
        <mxCell id="wIzm2T1jJwrxE7YObgyB-293" value="" style="endArrow=classic;html=1;rounded=0;entryX=0.5;entryY=0;entryDx=0;entryDy=0;" edge="1" parent="wIzm2T1jJwrxE7YObgyB-252" target="wIzm2T1jJwrxE7YObgyB-292">
          <mxGeometry width="50" height="50" relative="1" as="geometry">
            <mxPoint x="168" y="250" as="sourcePoint" />
            <mxPoint x="157.5" y="264" as="targetPoint" />
          </mxGeometry>
        </mxCell>
        <mxCell id="wIzm2T1jJwrxE7YObgyB-294" value="" style="endArrow=classic;html=1;rounded=0;exitX=0;exitY=0.5;exitDx=0;exitDy=0;" edge="1" parent="wIzm2T1jJwrxE7YObgyB-252" source="wIzm2T1jJwrxE7YObgyB-292">
          <mxGeometry width="50" height="50" relative="1" as="geometry">
            <mxPoint x="50" y="290" as="sourcePoint" />
            <mxPoint x="150" y="110" as="targetPoint" />
            <Array as="points">
              <mxPoint x="70" y="290" />
              <mxPoint x="70" y="110" />
            </Array>
          </mxGeometry>
        </mxCell>
        <mxCell id="wIzm2T1jJwrxE7YObgyB-295" value="Решил не менять стоимость" style="text;html=1;align=center;verticalAlign=middle;whiteSpace=wrap;rounded=0;" vertex="1" parent="wIzm2T1jJwrxE7YObgyB-252">
          <mxGeometry x="10" y="240" width="50" height="60" as="geometry" />
        </mxCell>
        <mxCell id="wIzm2T1jJwrxE7YObgyB-296" value="Данные стоимости товара" style="rounded=0;whiteSpace=wrap;html=1;" vertex="1" parent="wIzm2T1jJwrxE7YObgyB-252">
          <mxGeometry x="-60" y="920" width="120" height="40" as="geometry" />
        </mxCell>
        <mxCell id="wIzm2T1jJwrxE7YObgyB-297" value="" style="endArrow=classic;html=1;rounded=0;exitX=0.5;exitY=1;exitDx=0;exitDy=0;entryX=1;entryY=0.5;entryDx=0;entryDy=0;" edge="1" parent="wIzm2T1jJwrxE7YObgyB-252" target="wIzm2T1jJwrxE7YObgyB-296">
          <mxGeometry width="50" height="50" relative="1" as="geometry">
            <mxPoint x="168" y="310" as="sourcePoint" />
            <mxPoint x="170" y="960" as="targetPoint" />
            <Array as="points">
              <mxPoint x="170" y="940" />
            </Array>
          </mxGeometry>
        </mxCell>
        <mxCell id="wIzm2T1jJwrxE7YObgyB-260" value="" style="endArrow=classic;html=1;rounded=0;exitX=1;exitY=0.5;exitDx=0;exitDy=0;" edge="1" parent="1" source="wIzm2T1jJwrxE7YObgyB-237">
          <mxGeometry width="50" height="50" relative="1" as="geometry">
            <mxPoint x="-37.5" y="660" as="sourcePoint" />
            <mxPoint x="-100" y="760" as="targetPoint" />
            <Array as="points">
              <mxPoint x="110" y="795" />
              <mxPoint x="110" y="760" />
            </Array>
          </mxGeometry>
        </mxCell>
        <mxCell id="wIzm2T1jJwrxE7YObgyB-281" value="" style="endArrow=classic;html=1;rounded=0;exitX=1;exitY=0.5;exitDx=0;exitDy=0;" edge="1" parent="1" source="wIzm2T1jJwrxE7YObgyB-280">
          <mxGeometry width="50" height="50" relative="1" as="geometry">
            <mxPoint x="-350" y="860" as="sourcePoint" />
            <mxPoint x="340" y="290" as="targetPoint" />
            <Array as="points">
              <mxPoint x="-700" y="820" />
              <mxPoint x="-700" y="1040" />
              <mxPoint x="340" y="1050" />
            </Array>
          </mxGeometry>
        </mxCell>
        <mxCell id="wIzm2T1jJwrxE7YObgyB-298" value="" style="endArrow=classic;html=1;rounded=0;exitX=-0.006;exitY=0.589;exitDx=0;exitDy=0;exitPerimeter=0;" edge="1" parent="1">
          <mxGeometry width="50" height="50" relative="1" as="geometry">
            <mxPoint x="539" y="944" as="sourcePoint" />
            <mxPoint x="-930" y="880" as="targetPoint" />
            <Array as="points">
              <mxPoint x="480" y="944" />
              <mxPoint x="480" y="1080" />
              <mxPoint x="-800" y="1070" />
              <mxPoint x="-800" y="860" />
              <mxPoint x="-930" y="860" />
            </Array>
          </mxGeometry>
        </mxCell>
        <mxCell id="wIzm2T1jJwrxE7YObgyB-300" value="" style="endArrow=classic;html=1;rounded=0;exitX=1;exitY=0.5;exitDx=0;exitDy=0;" edge="1" parent="1">
          <mxGeometry width="50" height="50" relative="1" as="geometry">
            <mxPoint x="-870" y="900" as="sourcePoint" />
            <mxPoint x="670" y="290" as="targetPoint" />
            <Array as="points">
              <mxPoint x="-840" y="900" />
              <mxPoint x="-840" y="1120" />
              <mxPoint x="-693" y="1120" />
              <mxPoint x="680" y="1120" />
            </Array>
          </mxGeometry>
        </mxCell>
      </root>
    </mxGraphModel>
  </diagram>
</mxfile>
